{"glyphs":{"0":{"ha":1100,"x_min":0,"x_max":0,"o":"m 536 -24 b 1086 550 963 -24 1086 307 b 611 989 1086 899 836 989 b 61 415 185 989 61 658 b 536 -24 61 67 311 -24 z m 535 200 b 379 399 453 200 379 247 b 613 765 379 535 436 765 b 769 567 694 765 769 718 b 535 200 769 432 711 200 z "},"1":{"ha":707,"x_min":0,"x_max":0,"o":"m 317 596 l 213 0 l 519 0 l 689 965 l 435 965 b 168 807 379 857 303 807 l 113 807 l 67 544 l 149 544 b 317 596 215 544 288 563 z "},"2":{"ha":1001,"x_min":0,"x_max":0,"o":"m 21 206 l -15 0 l 893 0 l 933 229 l 493 229 b 781 364 608 271 706 318 b 1006 701 907 444 1006 547 b 575 989 1006 936 768 989 b 96 658 197 989 103 793 b 97 606 94 635 96 619 l 407 578 b 403 625 404 592 403 608 b 549 764 408 689 439 764 b 672 653 599 764 672 750 b 507 436 672 569 624 504 b 21 206 404 371 182 272 z "},"3":{"ha":997,"x_min":0,"x_max":0,"o":"m 501 -24 b 944 282 797 -24 944 119 b 731 479 944 400 861 463 b 1003 729 868 493 1003 575 b 560 989 1003 954 736 989 b 82 660 268 989 110 854 l 388 629 b 550 774 397 707 435 774 b 675 682 610 774 675 753 b 525 575 675 618 633 575 l 438 575 l 406 393 l 469 393 b 621 299 556 393 621 372 b 493 194 621 240 578 194 b 335 338 417 194 339 218 l 17 311 b 501 -24 15 40 269 -24 z "},"4":{"ha":1079,"x_min":0,"x_max":0,"o":"m 846 192 l 1015 192 l 1053 400 l 883 400 l 983 965 l 657 965 l 39 388 l 4 192 l 542 192 l 508 0 l 813 0 z m 639 644 l 588 400 l 318 400 b 404 472 347 418 367 436 l 569 644 b 657 743 615 688 639 717 l 661 743 b 639 644 653 718 649 692 z "},"5":{"ha":985,"x_min":0,"x_max":0,"o":"m 471 -24 b 943 368 853 -24 943 207 b 607 664 943 608 742 664 b 363 569 518 664 417 642 l 415 742 l 943 742 l 982 965 l 235 965 l 72 397 l 339 374 b 492 464 369 436 421 464 b 626 342 571 464 626 421 b 468 196 626 275 589 196 b 322 303 403 196 335 224 l 18 261 b 471 -24 38 31 285 -24 z "},"6":{"ha":1026,"x_min":0,"x_max":0,"o":"m 629 658 b 385 585 540 658 456 642 b 604 775 418 688 486 774 b 729 693 658 776 715 757 l 1035 731 b 621 989 1006 942 783 989 b 61 406 188 989 61 672 b 519 -24 61 65 301 -24 b 988 349 821 -24 988 146 b 629 658 988 578 825 658 z m 513 192 b 360 381 453 192 369 217 b 539 457 404 429 463 457 b 679 340 626 457 679 421 b 513 192 679 264 632 192 z "},"7":{"ha":890,"x_min":0,"x_max":0,"o":"m 138 29 l 133 0 l 467 0 l 474 56 b 935 740 514 369 671 575 l 975 965 l 132 965 l 90 728 l 636 728 b 138 29 353 558 172 301 z "},"8":{"ha":1047,"x_min":0,"x_max":0,"o":"m 831 531 b 1036 735 978 563 1036 642 b 578 989 1036 929 779 989 b 128 692 251 989 128 840 b 264 478 128 588 183 521 b 22 243 96 444 22 351 b 500 -24 22 43 290 -24 b 996 301 872 -24 996 136 b 831 531 996 421 933 488 z m 579 799 b 726 693 636 799 726 783 b 651 581 726 658 715 611 l 567 599 b 435 700 488 617 435 636 b 579 799 435 746 464 799 z m 514 181 b 349 293 421 181 349 211 b 447 421 349 344 379 393 l 522 403 b 678 290 632 378 678 349 b 514 181 678 238 633 181 z "},"9":{"ha":1032,"x_min":0,"x_max":0,"o":"m 554 989 b 92 642 194 989 92 790 b 474 332 92 418 299 332 b 696 389 549 332 622 347 b 493 193 665 286 604 193 b 346 286 439 193 356 214 l 40 249 b 469 -24 65 38 279 -24 b 1018 560 971 -24 1018 401 b 554 989 1018 919 767 989 z m 399 650 b 561 785 399 711 438 785 b 726 603 660 785 728 738 b 543 533 679 561 615 533 b 399 650 458 533 399 572 z "}," ":{"ha":418,"x_min":0,"x_max":0,"o":""},"A":{"ha":1206,"x_min":0,"x_max":0,"o":"m 788 196 l 821 0 l 1133 0 l 913 986 l 519 986 l -50 0 l 293 0 l 394 196 z m 751 399 l 501 399 l 603 594 b 692 786 638 657 665 717 l 694 786 b 718 594 700 715 707 650 z "},"B":{"ha":1125,"x_min":0,"x_max":0,"o":"m 890 508 b 1133 756 1025 529 1133 610 b 811 986 1133 928 989 986 l 207 986 l 33 0 l 661 0 b 1078 296 979 0 1078 151 b 890 508 1078 429 994 496 z m 663 597 l 456 597 l 489 781 l 686 781 b 789 699 744 781 789 761 b 663 597 789 649 764 597 z m 599 206 l 386 206 l 422 408 l 626 408 b 746 318 701 408 746 389 b 599 206 746 267 722 206 z "},"C":{"ha":1167,"x_min":0,"x_max":0,"o":"m 588 -28 b 1142 324 872 -28 1053 99 l 828 397 b 599 218 800 296 733 218 b 385 446 493 218 385 263 b 657 769 385 578 442 769 b 863 589 760 769 840 726 l 1196 650 b 669 1014 1161 904 940 1014 b 51 438 215 1014 51 700 b 588 -28 51 107 286 -28 z "},"D":{"ha":1194,"x_min":0,"x_max":0,"o":"m 207 986 l 33 0 l 547 0 b 1196 554 1003 0 1196 269 b 669 986 1196 868 964 986 z m 543 217 l 388 217 l 486 769 l 653 769 b 863 538 756 769 863 710 b 543 217 863 393 786 217 z "},"E":{"ha":1011,"x_min":0,"x_max":0,"o":"m 486 765 l 1013 765 l 1050 986 l 207 986 l 33 0 l 886 0 l 925 221 l 389 221 l 421 396 l 924 396 l 960 606 l 457 606 z "},"F":{"ha":971,"x_min":0,"x_max":0,"o":"m 485 758 l 1011 758 l 1050 986 l 207 986 l 33 0 l 350 0 l 415 369 l 918 369 l 957 592 l 456 592 z "},"G":{"ha":1188,"x_min":0,"x_max":0,"o":"m 493 -28 b 851 147 679 -28 797 46 l 835 0 l 1067 0 l 1167 568 l 610 568 l 575 364 l 838 364 l 833 349 b 600 199 814 272 743 199 b 382 433 463 199 382 264 b 660 786 382 596 456 786 b 858 642 765 786 840 743 l 1190 701 b 672 1014 1149 910 933 1014 b 47 413 211 1014 47 692 b 493 -28 47 118 232 -28 z "},"H":{"ha":1204,"x_min":0,"x_max":0,"o":"m 1050 0 l 1224 986 l 906 986 l 840 611 l 458 611 l 524 986 l 207 986 l 33 0 l 350 0 l 418 385 l 800 385 l 732 0 z "},"I":{"ha":506,"x_min":0,"x_max":0,"o":"m 33 0 l 350 0 l 524 986 l 207 986 z "},"J":{"ha":651,"x_min":0,"x_max":0,"o":"m 571 293 l 694 986 l 378 986 l 268 361 b 115 233 256 286 217 233 b 1 246 85 233 42 238 l -42 4 b 167 -18 0 -7 89 -18 b 571 293 388 -18 533 76 z "},"K":{"ha":1158,"x_min":0,"x_max":0,"o":"m 801 593 l 1244 986 l 878 986 l 457 607 l 524 986 l 207 986 l 33 0 l 350 0 l 394 253 l 554 393 l 732 0 l 1083 0 z "},"L":{"ha":914,"x_min":0,"x_max":0,"o":"m 207 986 l 33 0 l 826 0 l 871 250 l 394 250 l 524 986 z "},"M":{"ha":1458,"x_min":0,"x_max":0,"o":"m 207 986 l 33 0 l 303 0 l 407 589 b 424 742 417 639 422 693 l 428 742 b 442 608 429 704 433 654 l 521 0 l 796 0 l 1089 610 b 1150 743 1111 651 1133 701 l 1154 743 b 1117 589 1138 689 1125 636 l 1013 0 l 1303 0 l 1476 986 l 1001 986 l 764 464 b 711 332 742 415 721 368 l 708 332 b 703 461 711 368 708 414 l 643 986 z "},"N":{"ha":1210,"x_min":0,"x_max":0,"o":"m 207 986 l 33 0 l 324 0 l 403 456 l 429 604 l 433 604 b 490 481 443 571 464 526 l 742 0 l 1054 0 l 1228 986 l 938 986 l 857 526 b 832 383 849 482 840 429 l 828 383 b 772 515 817 421 800 465 l 538 986 z "},"O":{"ha":1217,"x_min":0,"x_max":0,"o":"m 601 -28 b 1218 556 1057 -28 1218 282 b 667 1014 1218 871 976 1014 b 50 431 210 1014 50 704 b 601 -28 50 115 292 -28 z m 600 210 b 382 444 486 210 382 269 b 667 776 382 606 456 776 b 886 542 782 776 886 717 b 600 210 886 381 811 210 z "},"P":{"ha":1085,"x_min":0,"x_max":0,"o":"m 710 986 l 207 986 l 33 0 l 350 0 l 406 314 l 667 314 b 1122 679 1017 314 1122 507 b 710 986 1122 929 900 986 z m 606 522 l 443 522 l 488 774 l 644 774 b 783 665 711 774 783 758 b 606 522 783 597 743 522 z "},"Q":{"ha":1224,"x_min":0,"x_max":0,"o":"m 879 21 b 1218 556 1125 118 1218 347 b 667 1014 1218 871 976 1014 b 50 431 210 1014 50 704 b 601 -28 50 115 292 -28 l 622 -28 b 989 -251 668 -178 794 -251 b 1094 -243 1025 -251 1058 -249 l 1136 -7 b 1029 -15 1094 -14 1065 -15 b 879 21 974 -15 921 -4 z m 600 210 b 382 444 486 210 382 269 b 667 776 382 606 456 776 b 886 542 782 776 886 717 b 600 210 886 381 811 210 z "},"R":{"ha":1115,"x_min":0,"x_max":0,"o":"m 1122 696 b 738 986 1122 922 932 986 l 207 986 l 33 0 l 350 0 l 411 344 l 561 344 l 682 0 l 1026 0 l 879 382 b 1122 696 1069 433 1122 568 z m 446 542 l 488 778 l 663 778 b 786 674 722 778 786 756 b 626 542 786 615 753 542 z "},"S":{"ha":1021,"x_min":0,"x_max":0,"o":"m 493 -28 b 990 322 881 -28 990 146 b 693 613 990 500 871 582 l 525 640 b 413 714 436 656 413 676 b 560 790 413 767 460 790 b 867 668 681 792 790 758 l 1074 851 b 581 1014 953 978 756 1014 b 106 678 207 1014 106 836 b 408 385 106 494 246 411 l 568 361 b 672 289 642 350 672 333 b 510 203 672 240 631 203 b 179 353 383 203 263 250 l -57 171 b 493 -28 47 32 247 -28 z "},"T":{"ha":972,"x_min":0,"x_max":0,"o":"m 1032 740 l 1075 986 l 122 986 l 79 740 l 397 740 l 267 0 l 583 0 l 714 740 z "},"U":{"ha":1147,"x_min":0,"x_max":0,"o":"m 500 986 l 183 986 l 90 461 b 554 -28 22 86 276 -28 b 1082 374 915 -28 1046 167 l 1190 986 l 872 986 l 772 410 b 567 221 754 314 699 221 b 403 436 476 221 372 264 z "},"V":{"ha":1147,"x_min":0,"x_max":0,"o":"m 110 986 l 324 0 l 703 0 l 1263 986 l 904 986 l 601 392 b 551 272 579 346 563 308 l 546 272 b 536 392 546 308 542 346 l 443 986 z "},"W":{"ha":1614,"x_min":0,"x_max":0,"o":"m 133 986 l 238 0 l 593 0 l 839 589 b 867 679 850 617 860 646 l 874 679 b 871 589 869 646 868 617 l 907 0 l 1254 0 l 1706 986 l 1381 986 l 1158 432 b 1126 331 1144 397 1133 364 l 1121 331 b 1121 432 1125 364 1124 399 l 1078 986 l 751 986 l 513 432 b 476 331 497 399 485 364 l 471 331 b 475 432 476 364 476 397 l 449 986 z "},"X":{"ha":1165,"x_min":0,"x_max":0,"o":"m 414 506 l -57 0 l 313 0 l 515 244 b 575 319 539 271 563 296 l 578 319 b 613 243 582 296 597 269 l 743 0 l 1100 0 l 810 496 l 1260 986 l 894 986 l 689 743 b 639 678 667 718 651 700 l 635 678 b 608 743 631 700 622 719 l 483 986 l 129 986 z "},"Y":{"ha":1072,"x_min":0,"x_max":0,"o":"m 374 332 l 317 0 l 635 0 l 692 332 l 1197 986 l 850 986 l 606 640 b 564 569 583 611 572 590 l 561 569 b 546 640 561 590 557 611 l 428 986 l 100 986 z "},"Z":{"ha":1028,"x_min":0,"x_max":0,"o":"m 643 760 l 32 207 l -4 0 l 924 0 l 964 225 l 431 225 l 1039 779 l 1075 986 l 189 986 l 149 760 z "},"Á":{"ha":1206,"x_min":0,"x_max":0,"o":"m 788 196 l 821 0 l 1133 0 l 913 986 l 519 986 l -50 0 l 293 0 l 394 196 z m 751 399 l 501 399 l 603 594 b 692 786 638 657 665 717 l 694 786 b 718 594 700 715 707 650 z "},"Ă":{"ha":1206,"x_min":0,"x_max":0,"o":"m 788 196 l 821 0 l 1133 0 l 913 986 l 519 986 l -50 0 l 293 0 l 394 196 z m 751 399 l 501 399 l 603 594 b 692 786 638 657 665 717 l 694 786 b 718 594 700 715 707 650 z "},"Â":{"ha":1206,"x_min":0,"x_max":0,"o":"m 788 196 l 821 0 l 1133 0 l 913 986 l 519 986 l -50 0 l 293 0 l 394 196 z m 751 399 l 501 399 l 603 594 b 692 786 638 657 665 717 l 694 786 b 718 594 700 715 707 650 z "},"Ä":{"ha":1206,"x_min":0,"x_max":0,"o":"m 788 196 l 821 0 l 1133 0 l 913 986 l 519 986 l -50 0 l 293 0 l 394 196 z m 751 399 l 501 399 l 603 594 b 692 786 638 657 665 717 l 694 786 b 718 594 700 715 707 650 z "},"Æ":{"ha":2217,"x_min":0,"x_max":0,"o":"m 788 196 l 821 0 l 1133 0 l 913 986 l 519 986 l -50 0 l 293 0 l 394 196 z m 1692 765 l 2218 765 l 2256 986 l 1413 986 l 1239 0 l 2092 0 l 2131 221 l 1594 221 l 1626 396 l 2129 396 l 2165 606 l 1663 606 z m 751 399 l 501 399 l 603 594 b 692 786 638 657 665 717 l 694 786 b 718 594 700 715 707 650 z "},"Ǽ":{"ha":2217,"x_min":0,"x_max":0,"o":"m 788 196 l 821 0 l 1133 0 l 913 986 l 519 986 l -50 0 l 293 0 l 394 196 z m 1692 765 l 2218 765 l 2256 986 l 1413 986 l 1239 0 l 2092 0 l 2131 221 l 1594 221 l 1626 396 l 2129 396 l 2165 606 l 1663 606 z m 751 399 l 501 399 l 603 594 b 692 786 638 657 665 717 l 694 786 b 718 594 700 715 707 650 z "},"À":{"ha":1206,"x_min":0,"x_max":0,"o":"m 788 196 l 821 0 l 1133 0 l 913 986 l 519 986 l -50 0 l 293 0 l 394 196 z m 751 399 l 501 399 l 603 594 b 692 786 638 657 665 717 l 694 786 b 718 594 700 715 707 650 z "},"Ā":{"ha":1206,"x_min":0,"x_max":0,"o":"m 788 196 l 821 0 l 1133 0 l 913 986 l 519 986 l -50 0 l 293 0 l 394 196 z m 751 399 l 501 399 l 603 594 b 692 786 638 657 665 717 l 694 786 b 718 594 700 715 707 650 z "},"Ą":{"ha":1206,"x_min":0,"x_max":0,"o":"m 788 196 l 821 0 l 1133 0 l 913 986 l 519 986 l -50 0 l 293 0 l 394 196 z m 751 399 l 501 399 l 603 594 b 692 786 638 657 665 717 l 694 786 b 718 594 700 715 707 650 z "},"Å":{"ha":1206,"x_min":0,"x_max":0,"o":"m 788 196 l 821 0 l 1133 0 l 913 986 l 519 986 l -50 0 l 293 0 l 394 196 z m 751 399 l 501 399 l 603 594 b 692 786 638 657 665 717 l 694 786 b 718 594 700 715 707 650 z "},"Ã":{"ha":1206,"x_min":0,"x_max":0,"o":"m 788 196 l 821 0 l 1133 0 l 913 986 l 519 986 l -50 0 l 293 0 l 394 196 z m 751 399 l 501 399 l 603 594 b 692 786 638 657 665 717 l 694 786 b 718 594 700 715 707 650 z "},"Ć":{"ha":1167,"x_min":0,"x_max":0,"o":"m 588 -28 b 1142 324 872 -28 1053 99 l 828 397 b 599 218 800 296 733 218 b 385 446 493 218 385 263 b 657 769 385 578 442 769 b 863 589 760 769 840 726 l 1196 650 b 669 1014 1161 904 940 1014 b 51 438 215 1014 51 700 b 588 -28 51 107 286 -28 z "},"Č":{"ha":1167,"x_min":0,"x_max":0,"o":"m 588 -28 b 1142 324 872 -28 1053 99 l 828 397 b 599 218 800 296 733 218 b 385 446 493 218 385 263 b 657 769 385 578 442 769 b 863 589 760 769 840 726 l 1196 650 b 669 1014 1161 904 940 1014 b 51 438 215 1014 51 700 b 588 -28 51 107 286 -28 z "},"Ç":{"ha":1167,"x_min":0,"x_max":0,"o":"m 588 -28 b 1142 324 872 -28 1053 99 l 828 397 b 599 218 800 296 733 218 b 385 446 493 218 385 263 b 657 769 385 578 442 769 b 863 589 760 769 840 726 l 1196 650 b 669 1014 1161 904 940 1014 b 51 438 215 1014 51 700 b 588 -28 51 107 286 -28 z "},"Ĉ":{"ha":1167,"x_min":0,"x_max":0,"o":"m 588 -28 b 1142 324 872 -28 1053 99 l 828 397 b 599 218 800 296 733 218 b 385 446 493 218 385 263 b 657 769 385 578 442 769 b 863 589 760 769 840 726 l 1196 650 b 669 1014 1161 904 940 1014 b 51 438 215 1014 51 700 b 588 -28 51 107 286 -28 z "},"Ċ":{"ha":1167,"x_min":0,"x_max":0,"o":"m 588 -28 b 1142 324 872 -28 1053 99 l 828 397 b 599 218 800 296 733 218 b 385 446 493 218 385 263 b 657 769 385 578 442 769 b 863 589 760 769 840 726 l 1196 650 b 669 1014 1161 904 940 1014 b 51 438 215 1014 51 700 b 588 -28 51 107 286 -28 z "},"Ď":{"ha":1194,"x_min":0,"x_max":0,"o":"m 207 986 l 33 0 l 547 0 b 1196 554 1003 0 1196 269 b 669 986 1196 868 964 986 z m 543 217 l 388 217 l 486 769 l 653 769 b 863 538 756 769 863 710 b 543 217 863 393 786 217 z "},"Đ":{"ha":1194,"x_min":0,"x_max":0,"o":"m 207 986 l 33 0 l 547 0 b 1196 554 1003 0 1196 269 b 669 986 1196 868 964 986 z m 543 217 l 388 217 l 486 769 l 653 769 b 863 538 756 769 863 710 b 543 217 863 393 786 217 z "},"É":{"ha":1011,"x_min":0,"x_max":0,"o":"m 486 765 l 1013 765 l 1050 986 l 207 986 l 33 0 l 886 0 l 925 221 l 389 221 l 421 396 l 924 396 l 960 606 l 457 606 z "},"Ĕ":{"ha":1011,"x_min":0,"x_max":0,"o":"m 486 765 l 1013 765 l 1050 986 l 207 986 l 33 0 l 886 0 l 925 221 l 389 221 l 421 396 l 924 396 l 960 606 l 457 606 z "},"Ě":{"ha":1011,"x_min":0,"x_max":0,"o":"m 486 765 l 1013 765 l 1050 986 l 207 986 l 33 0 l 886 0 l 925 221 l 389 221 l 421 396 l 924 396 l 960 606 l 457 606 z "},"Ê":{"ha":1011,"x_min":0,"x_max":0,"o":"m 486 765 l 1013 765 l 1050 986 l 207 986 l 33 0 l 886 0 l 925 221 l 389 221 l 421 396 l 924 396 l 960 606 l 457 606 z "},"Ë":{"ha":1011,"x_min":0,"x_max":0,"o":"m 486 765 l 1013 765 l 1050 986 l 207 986 l 33 0 l 886 0 l 925 221 l 389 221 l 421 396 l 924 396 l 960 606 l 457 606 z "},"Ė":{"ha":1011,"x_min":0,"x_max":0,"o":"m 486 765 l 1013 765 l 1050 986 l 207 986 l 33 0 l 886 0 l 925 221 l 389 221 l 421 396 l 924 396 l 960 606 l 457 606 z "},"È":{"ha":1011,"x_min":0,"x_max":0,"o":"m 486 765 l 1013 765 l 1050 986 l 207 986 l 33 0 l 886 0 l 925 221 l 389 221 l 421 396 l 924 396 l 960 606 l 457 606 z "},"Ē":{"ha":1011,"x_min":0,"x_max":0,"o":"m 486 765 l 1013 765 l 1050 986 l 207 986 l 33 0 l 886 0 l 925 221 l 389 221 l 421 396 l 924 396 l 960 606 l 457 606 z "},"Ę":{"ha":1011,"x_min":0,"x_max":0,"o":"m 486 765 l 1013 765 l 1050 986 l 207 986 l 33 0 l 886 0 l 925 221 l 389 221 l 421 396 l 924 396 l 960 606 l 457 606 z "},"Ð":{"ha":1194,"x_min":0,"x_max":0,"o":"m 207 986 l 33 0 l 547 0 b 1196 554 1003 0 1196 269 b 669 986 1196 868 964 986 z m 543 217 l 388 217 l 486 769 l 653 769 b 863 538 756 769 863 710 b 543 217 863 393 786 217 z "},"Ğ":{"ha":1188,"x_min":0,"x_max":0,"o":"m 493 -28 b 851 147 679 -28 797 46 l 835 0 l 1067 0 l 1167 568 l 610 568 l 575 364 l 838 364 l 833 349 b 600 199 814 272 743 199 b 382 433 463 199 382 264 b 660 786 382 596 456 786 b 858 642 765 786 840 743 l 1190 701 b 672 1014 1149 910 933 1014 b 47 413 211 1014 47 692 b 493 -28 47 118 232 -28 z "},"Ĝ":{"ha":1188,"x_min":0,"x_max":0,"o":"m 493 -28 b 851 147 679 -28 797 46 l 835 0 l 1067 0 l 1167 568 l 610 568 l 575 364 l 838 364 l 833 349 b 600 199 814 272 743 199 b 382 433 463 199 382 264 b 660 786 382 596 456 786 b 858 642 765 786 840 743 l 1190 701 b 672 1014 1149 910 933 1014 b 47 413 211 1014 47 692 b 493 -28 47 118 232 -28 z "},"Ģ":{"ha":1188,"x_min":0,"x_max":0,"o":"m 493 -28 b 851 147 679 -28 797 46 l 835 0 l 1067 0 l 1167 568 l 610 568 l 575 364 l 838 364 l 833 349 b 600 199 814 272 743 199 b 382 433 463 199 382 264 b 660 786 382 596 456 786 b 858 642 765 786 840 743 l 1190 701 b 672 1014 1149 910 933 1014 b 47 413 211 1014 47 692 b 493 -28 47 118 232 -28 z "},"Ġ":{"ha":1188,"x_min":0,"x_max":0,"o":"m 493 -28 b 851 147 679 -28 797 46 l 835 0 l 1067 0 l 1167 568 l 610 568 l 575 364 l 838 364 l 833 349 b 600 199 814 272 743 199 b 382 433 463 199 382 264 b 660 786 382 596 456 786 b 858 642 765 786 840 743 l 1190 701 b 672 1014 1149 910 933 1014 b 47 413 211 1014 47 692 b 493 -28 47 118 232 -28 z "},"Ħ":{"ha":1204,"x_min":0,"x_max":0,"o":"m 1050 0 l 1224 986 l 906 986 l 840 611 l 458 611 l 524 986 l 207 986 l 33 0 l 350 0 l 418 385 l 800 385 l 732 0 z "},"Ĥ":{"ha":1204,"x_min":0,"x_max":0,"o":"m 1050 0 l 1224 986 l 906 986 l 840 611 l 458 611 l 524 986 l 207 986 l 33 0 l 350 0 l 418 385 l 800 385 l 732 0 z "},"Í":{"ha":506,"x_min":0,"x_max":0,"o":"m 33 0 l 350 0 l 524 986 l 207 986 z "},"Ĭ":{"ha":506,"x_min":0,"x_max":0,"o":"m 33 0 l 350 0 l 524 986 l 207 986 z "},"Î":{"ha":506,"x_min":0,"x_max":0,"o":"m 33 0 l 350 0 l 524 986 l 207 986 z "},"Ï":{"ha":506,"x_min":0,"x_max":0,"o":"m 33 0 l 350 0 l 524 986 l 207 986 z "},"İ":{"ha":506,"x_min":0,"x_max":0,"o":"m 33 0 l 350 0 l 524 986 l 207 986 z "},"Ì":{"ha":506,"x_min":0,"x_max":0,"o":"m 33 0 l 350 0 l 524 986 l 207 986 z "},"Ĳ":{"ha":1157,"x_min":0,"x_max":0,"o":"m 33 0 l 350 0 l 524 986 l 207 986 z m 1076 293 l 1200 986 l 883 986 l 774 361 b 621 233 761 286 722 233 b 507 246 590 233 547 238 l 464 4 b 672 -18 506 -7 594 -18 b 1076 293 893 -18 1039 76 z "},"Ī":{"ha":506,"x_min":0,"x_max":0,"o":"m 33 0 l 350 0 l 524 986 l 207 986 z "},"Į":{"ha":506,"x_min":0,"x_max":0,"o":"m 33 0 l 350 0 l 524 986 l 207 986 z "},"Ĩ":{"ha":506,"x_min":0,"x_max":0,"o":"m 33 0 l 350 0 l 524 986 l 207 986 z "},"Ĵ":{"ha":651,"x_min":0,"x_max":0,"o":"m 571 293 l 694 986 l 378 986 l 268 361 b 115 233 256 286 217 233 b 1 246 85 233 42 238 l -42 4 b 167 -18 0 -7 89 -18 b 571 293 388 -18 533 76 z "},"Ķ":{"ha":1158,"x_min":0,"x_max":0,"o":"m 801 593 l 1244 986 l 878 986 l 457 607 l 524 986 l 207 986 l 33 0 l 350 0 l 394 253 l 554 393 l 732 0 l 1083 0 z "},"Ĺ":{"ha":914,"x_min":0,"x_max":0,"o":"m 207 986 l 33 0 l 826 0 l 871 250 l 394 250 l 524 986 z "},"Ľ":{"ha":914,"x_min":0,"x_max":0,"o":"m 207 986 l 33 0 l 826 0 l 871 250 l 394 250 l 524 986 z "},"Ļ":{"ha":914,"x_min":0,"x_max":0,"o":"m 207 986 l 33 0 l 826 0 l 871 250 l 394 250 l 524 986 z "},"Ŀ":{"ha":914,"x_min":0,"x_max":0,"o":"m 207 986 l 33 0 l 826 0 l 871 250 l 394 250 l 524 986 z "},"Ł":{"ha":914,"x_min":0,"x_max":0,"o":"m 207 986 l 33 0 l 826 0 l 871 250 l 394 250 l 524 986 z "},"Ń":{"ha":1210,"x_min":0,"x_max":0,"o":"m 207 986 l 33 0 l 324 0 l 403 456 l 429 604 l 433 604 b 490 481 443 571 464 526 l 742 0 l 1054 0 l 1228 986 l 938 986 l 857 526 b 832 383 849 482 840 429 l 828 383 b 772 515 817 421 800 465 l 538 986 z "},"Ň":{"ha":1210,"x_min":0,"x_max":0,"o":"m 207 986 l 33 0 l 324 0 l 403 456 l 429 604 l 433 604 b 490 481 443 571 464 526 l 742 0 l 1054 0 l 1228 986 l 938 986 l 857 526 b 832 383 849 482 840 429 l 828 383 b 772 515 817 421 800 465 l 538 986 z "},"Ņ":{"ha":1210,"x_min":0,"x_max":0,"o":"m 207 986 l 33 0 l 324 0 l 403 456 l 429 604 l 433 604 b 490 481 443 571 464 526 l 742 0 l 1054 0 l 1228 986 l 938 986 l 857 526 b 832 383 849 482 840 429 l 828 383 b 772 515 817 421 800 465 l 538 986 z "},"Ñ":{"ha":1210,"x_min":0,"x_max":0,"o":"m 207 986 l 33 0 l 324 0 l 403 456 l 429 604 l 433 604 b 490 481 443 571 464 526 l 742 0 l 1054 0 l 1228 986 l 938 986 l 857 526 b 832 383 849 482 840 429 l 828 383 b 772 515 817 421 800 465 l 538 986 z "},"Ŋ":{"ha":1210,"x_min":0,"x_max":0,"o":"m 207 986 l 33 0 l 324 0 l 403 456 l 429 604 l 433 604 b 490 481 443 571 464 526 l 742 0 l 1054 0 l 1228 986 l 938 986 l 857 526 b 832 383 849 482 840 429 l 828 383 b 772 515 817 421 800 465 l 538 986 z "},"Ó":{"ha":1217,"x_min":0,"x_max":0,"o":"m 601 -28 b 1218 556 1057 -28 1218 282 b 667 1014 1218 871 976 1014 b 50 431 210 1014 50 704 b 601 -28 50 115 292 -28 z m 600 210 b 382 444 486 210 382 269 b 667 776 382 606 456 776 b 886 542 782 776 886 717 b 600 210 886 381 811 210 z "},"Ŏ":{"ha":1217,"x_min":0,"x_max":0,"o":"m 601 -28 b 1218 556 1057 -28 1218 282 b 667 1014 1218 871 976 1014 b 50 431 210 1014 50 704 b 601 -28 50 115 292 -28 z m 600 210 b 382 444 486 210 382 269 b 667 776 382 606 456 776 b 886 542 782 776 886 717 b 600 210 886 381 811 210 z "},"Ô":{"ha":1217,"x_min":0,"x_max":0,"o":"m 601 -28 b 1218 556 1057 -28 1218 282 b 667 1014 1218 871 976 1014 b 50 431 210 1014 50 704 b 601 -28 50 115 292 -28 z m 600 210 b 382 444 486 210 382 269 b 667 776 382 606 456 776 b 886 542 782 776 886 717 b 600 210 886 381 811 210 z "},"Ö":{"ha":1217,"x_min":0,"x_max":0,"o":"m 601 -28 b 1218 556 1057 -28 1218 282 b 667 1014 1218 871 976 1014 b 50 431 210 1014 50 704 b 601 -28 50 115 292 -28 z m 600 210 b 382 444 486 210 382 269 b 667 776 382 606 456 776 b 886 542 782 776 886 717 b 600 210 886 381 811 210 z "},"Œ":{"ha":2228,"x_min":0,"x_max":0,"o":"m 601 -28 b 1218 556 1057 -28 1218 282 b 667 1014 1218 871 976 1014 b 50 431 210 1014 50 704 b 601 -28 50 115 292 -28 z m 1703 765 l 2229 765 l 2267 986 l 1424 986 l 1250 0 l 2103 0 l 2142 221 l 1606 221 l 1638 396 l 2140 396 l 2176 606 l 1674 606 z m 600 210 b 382 444 486 210 382 269 b 667 776 382 606 456 776 b 886 542 782 776 886 717 b 600 210 886 381 811 210 z "},"Ò":{"ha":1217,"x_min":0,"x_max":0,"o":"m 601 -28 b 1218 556 1057 -28 1218 282 b 667 1014 1218 871 976 1014 b 50 431 210 1014 50 704 b 601 -28 50 115 292 -28 z m 600 210 b 382 444 486 210 382 269 b 667 776 382 606 456 776 b 886 542 782 776 886 717 b 600 210 886 381 811 210 z "},"Ő":{"ha":1217,"x_min":0,"x_max":0,"o":"m 601 -28 b 1218 556 1057 -28 1218 282 b 667 1014 1218 871 976 1014 b 50 431 210 1014 50 704 b 601 -28 50 115 292 -28 z m 600 210 b 382 444 486 210 382 269 b 667 776 382 606 456 776 b 886 542 782 776 886 717 b 600 210 886 381 811 210 z "},"Ō":{"ha":1217,"x_min":0,"x_max":0,"o":"m 601 -28 b 1218 556 1057 -28 1218 282 b 667 1014 1218 871 976 1014 b 50 431 210 1014 50 704 b 601 -28 50 115 292 -28 z m 600 210 b 382 444 486 210 382 269 b 667 776 382 606 456 776 b 886 542 782 776 886 717 b 600 210 886 381 811 210 z "},"Ø":{"ha":1217,"x_min":0,"x_max":0,"o":"m 601 -28 b 1218 556 1057 -28 1218 282 b 667 1014 1218 871 976 1014 b 50 431 210 1014 50 704 b 601 -28 50 115 292 -28 z m 600 210 b 382 444 486 210 382 269 b 667 776 382 606 456 776 b 886 542 782 776 886 717 b 600 210 886 381 811 210 z "},"Ǿ":{"ha":1217,"x_min":0,"x_max":0,"o":"m 601 -28 b 1218 556 1057 -28 1218 282 b 667 1014 1218 871 976 1014 b 50 431 210 1014 50 704 b 601 -28 50 115 292 -28 z m 600 210 b 382 444 486 210 382 269 b 667 776 382 606 456 776 b 886 542 782 776 886 717 b 600 210 886 381 811 210 z "},"Õ":{"ha":1217,"x_min":0,"x_max":0,"o":"m 601 -28 b 1218 556 1057 -28 1218 282 b 667 1014 1218 871 976 1014 b 50 431 210 1014 50 704 b 601 -28 50 115 292 -28 z m 600 210 b 382 444 486 210 382 269 b 667 776 382 606 456 776 b 886 542 782 776 886 717 b 600 210 886 381 811 210 z "},"Ŕ":{"ha":1115,"x_min":0,"x_max":0,"o":"m 1122 696 b 738 986 1122 922 932 986 l 207 986 l 33 0 l 350 0 l 411 344 l 561 344 l 682 0 l 1026 0 l 879 382 b 1122 696 1069 433 1122 568 z m 446 542 l 488 778 l 663 778 b 786 674 722 778 786 756 b 626 542 786 615 753 542 z "},"Ř":{"ha":1115,"x_min":0,"x_max":0,"o":"m 1122 696 b 738 986 1122 922 932 986 l 207 986 l 33 0 l 350 0 l 411 344 l 561 344 l 682 0 l 1026 0 l 879 382 b 1122 696 1069 433 1122 568 z m 446 542 l 488 778 l 663 778 b 786 674 722 778 786 756 b 626 542 786 615 753 542 z "},"Ŗ":{"ha":1115,"x_min":0,"x_max":0,"o":"m 1122 696 b 738 986 1122 922 932 986 l 207 986 l 33 0 l 350 0 l 411 344 l 561 344 l 682 0 l 1026 0 l 879 382 b 1122 696 1069 433 1122 568 z m 446 542 l 488 778 l 663 778 b 786 674 722 778 786 756 b 626 542 786 615 753 542 z "},"Ś":{"ha":1021,"x_min":0,"x_max":0,"o":"m 493 -28 b 990 322 881 -28 990 146 b 693 613 990 500 871 582 l 525 640 b 413 714 436 656 413 676 b 560 790 413 767 460 790 b 867 668 681 792 790 758 l 1074 851 b 581 1014 953 978 756 1014 b 106 678 207 1014 106 836 b 408 385 106 494 246 411 l 568 361 b 672 289 642 350 672 333 b 510 203 672 240 631 203 b 179 353 383 203 263 250 l -57 171 b 493 -28 47 32 247 -28 z "},"Š":{"ha":1021,"x_min":0,"x_max":0,"o":"m 493 -28 b 990 322 881 -28 990 146 b 693 613 990 500 871 582 l 525 640 b 413 714 436 656 413 676 b 560 790 413 767 460 790 b 867 668 681 792 790 758 l 1074 851 b 581 1014 953 978 756 1014 b 106 678 207 1014 106 836 b 408 385 106 494 246 411 l 568 361 b 672 289 642 350 672 333 b 510 203 672 240 631 203 b 179 353 383 203 263 250 l -57 171 b 493 -28 47 32 247 -28 z "},"Ş":{"ha":1021,"x_min":0,"x_max":0,"o":"m 493 -28 b 990 322 881 -28 990 146 b 693 613 990 500 871 582 l 525 640 b 413 714 436 656 413 676 b 560 790 413 767 460 790 b 867 668 681 792 790 758 l 1074 851 b 581 1014 953 978 756 1014 b 106 678 207 1014 106 836 b 408 385 106 494 246 411 l 568 361 b 672 289 642 350 672 333 b 510 203 672 240 631 203 b 179 353 383 203 263 250 l -57 171 b 493 -28 47 32 247 -28 z "},"Ŝ":{"ha":1021,"x_min":0,"x_max":0,"o":"m 493 -28 b 990 322 881 -28 990 146 b 693 613 990 500 871 582 l 525 640 b 413 714 436 656 413 676 b 560 790 413 767 460 790 b 867 668 681 792 790 758 l 1074 851 b 581 1014 953 978 756 1014 b 106 678 207 1014 106 836 b 408 385 106 494 246 411 l 568 361 b 672 289 642 350 672 333 b 510 203 672 240 631 203 b 179 353 383 203 263 250 l -57 171 b 493 -28 47 32 247 -28 z "},"Ș":{"ha":1021,"x_min":0,"x_max":0,"o":"m 493 -28 b 990 322 881 -28 990 146 b 693 613 990 500 871 582 l 525 640 b 413 714 436 656 413 676 b 560 790 413 767 460 790 b 867 668 681 792 790 758 l 1074 851 b 581 1014 953 978 756 1014 b 106 678 207 1014 106 836 b 408 385 106 494 246 411 l 568 361 b 672 289 642 350 672 333 b 510 203 672 240 631 203 b 179 353 383 203 263 250 l -57 171 b 493 -28 47 32 247 -28 z "},"Ŧ":{"ha":972,"x_min":0,"x_max":0,"o":"m 1032 740 l 1075 986 l 122 986 l 79 740 l 397 740 l 267 0 l 583 0 l 714 740 z "},"Ť":{"ha":972,"x_min":0,"x_max":0,"o":"m 1032 740 l 1075 986 l 122 986 l 79 740 l 397 740 l 267 0 l 583 0 l 714 740 z "},"Þ":{"ha":1085,"x_min":0,"x_max":0,"o":"m 710 986 l 207 986 l 33 0 l 350 0 l 406 314 l 667 314 b 1122 679 1017 314 1122 507 b 710 986 1122 929 900 986 z m 606 522 l 443 522 l 488 774 l 644 774 b 783 665 711 774 783 758 b 606 522 783 597 743 522 z "},"Ú":{"ha":1147,"x_min":0,"x_max":0,"o":"m 500 986 l 183 986 l 90 461 b 554 -28 22 86 276 -28 b 1082 374 915 -28 1046 167 l 1190 986 l 872 986 l 772 410 b 567 221 754 314 699 221 b 403 436 476 221 372 264 z "},"Ŭ":{"ha":1147,"x_min":0,"x_max":0,"o":"m 500 986 l 183 986 l 90 461 b 554 -28 22 86 276 -28 b 1082 374 915 -28 1046 167 l 1190 986 l 872 986 l 772 410 b 567 221 754 314 699 221 b 403 436 476 221 372 264 z "},"Û":{"ha":1147,"x_min":0,"x_max":0,"o":"m 500 986 l 183 986 l 90 461 b 554 -28 22 86 276 -28 b 1082 374 915 -28 1046 167 l 1190 986 l 872 986 l 772 410 b 567 221 754 314 699 221 b 403 436 476 221 372 264 z "},"Ü":{"ha":1147,"x_min":0,"x_max":0,"o":"m 500 986 l 183 986 l 90 461 b 554 -28 22 86 276 -28 b 1082 374 915 -28 1046 167 l 1190 986 l 872 986 l 772 410 b 567 221 754 314 699 221 b 403 436 476 221 372 264 z "},"Ù":{"ha":1147,"x_min":0,"x_max":0,"o":"m 500 986 l 183 986 l 90 461 b 554 -28 22 86 276 -28 b 1082 374 915 -28 1046 167 l 1190 986 l 872 986 l 772 410 b 567 221 754 314 699 221 b 403 436 476 221 372 264 z "},"Ű":{"ha":1147,"x_min":0,"x_max":0,"o":"m 500 986 l 183 986 l 90 461 b 554 -28 22 86 276 -28 b 1082 374 915 -28 1046 167 l 1190 986 l 872 986 l 772 410 b 567 221 754 314 699 221 b 403 436 476 221 372 264 z "},"Ū":{"ha":1147,"x_min":0,"x_max":0,"o":"m 500 986 l 183 986 l 90 461 b 554 -28 22 86 276 -28 b 1082 374 915 -28 1046 167 l 1190 986 l 872 986 l 772 410 b 567 221 754 314 699 221 b 403 436 476 221 372 264 z "},"Ų":{"ha":1147,"x_min":0,"x_max":0,"o":"m 500 986 l 183 986 l 90 461 b 554 -28 22 86 276 -28 b 1082 374 915 -28 1046 167 l 1190 986 l 872 986 l 772 410 b 567 221 754 314 699 221 b 403 436 476 221 372 264 z "},"Ů":{"ha":1147,"x_min":0,"x_max":0,"o":"m 500 986 l 183 986 l 90 461 b 554 -28 22 86 276 -28 b 1082 374 915 -28 1046 167 l 1190 986 l 872 986 l 772 410 b 567 221 754 314 699 221 b 403 436 476 221 372 264 z "},"Ũ":{"ha":1147,"x_min":0,"x_max":0,"o":"m 500 986 l 183 986 l 90 461 b 554 -28 22 86 276 -28 b 1082 374 915 -28 1046 167 l 1190 986 l 872 986 l 772 410 b 567 221 754 314 699 221 b 403 436 476 221 372 264 z "},"Ẃ":{"ha":1614,"x_min":0,"x_max":0,"o":"m 133 986 l 238 0 l 593 0 l 839 589 b 867 679 850 617 860 646 l 874 679 b 871 589 869 646 868 617 l 907 0 l 1254 0 l 1706 986 l 1381 986 l 1158 432 b 1126 331 1144 397 1133 364 l 1121 331 b 1121 432 1125 364 1124 399 l 1078 986 l 751 986 l 513 432 b 476 331 497 399 485 364 l 471 331 b 475 432 476 364 476 397 l 449 986 z "},"Ŵ":{"ha":1614,"x_min":0,"x_max":0,"o":"m 133 986 l 238 0 l 593 0 l 839 589 b 867 679 850 617 860 646 l 874 679 b 871 589 869 646 868 617 l 907 0 l 1254 0 l 1706 986 l 1381 986 l 1158 432 b 1126 331 1144 397 1133 364 l 1121 331 b 1121 432 1125 364 1124 399 l 1078 986 l 751 986 l 513 432 b 476 331 497 399 485 364 l 471 331 b 475 432 476 364 476 397 l 449 986 z "},"Ẅ":{"ha":1614,"x_min":0,"x_max":0,"o":"m 133 986 l 238 0 l 593 0 l 839 589 b 867 679 850 617 860 646 l 874 679 b 871 589 869 646 868 617 l 907 0 l 1254 0 l 1706 986 l 1381 986 l 1158 432 b 1126 331 1144 397 1133 364 l 1121 331 b 1121 432 1125 364 1124 399 l 1078 986 l 751 986 l 513 432 b 476 331 497 399 485 364 l 471 331 b 475 432 476 364 476 397 l 449 986 z "},"Ẁ":{"ha":1614,"x_min":0,"x_max":0,"o":"m 133 986 l 238 0 l 593 0 l 839 589 b 867 679 850 617 860 646 l 874 679 b 871 589 869 646 868 617 l 907 0 l 1254 0 l 1706 986 l 1381 986 l 1158 432 b 1126 331 1144 397 1133 364 l 1121 331 b 1121 432 1125 364 1124 399 l 1078 986 l 751 986 l 513 432 b 476 331 497 399 485 364 l 471 331 b 475 432 476 364 476 397 l 449 986 z "},"Ý":{"ha":1072,"x_min":0,"x_max":0,"o":"m 374 332 l 317 0 l 635 0 l 692 332 l 1197 986 l 850 986 l 606 640 b 564 569 583 611 572 590 l 561 569 b 546 640 561 590 557 611 l 428 986 l 100 986 z "},"Ŷ":{"ha":1072,"x_min":0,"x_max":0,"o":"m 374 332 l 317 0 l 635 0 l 692 332 l 1197 986 l 850 986 l 606 640 b 564 569 583 611 572 590 l 561 569 b 546 640 561 590 557 611 l 428 986 l 100 986 z "},"Ÿ":{"ha":1072,"x_min":0,"x_max":0,"o":"m 374 332 l 317 0 l 635 0 l 692 332 l 1197 986 l 850 986 l 606 640 b 564 569 583 611 572 590 l 561 569 b 546 640 561 590 557 611 l 428 986 l 100 986 z "},"Ỳ":{"ha":1072,"x_min":0,"x_max":0,"o":"m 374 332 l 317 0 l 635 0 l 692 332 l 1197 986 l 850 986 l 606 640 b 564 569 583 611 572 590 l 561 569 b 546 640 561 590 557 611 l 428 986 l 100 986 z "},"Ź":{"ha":1028,"x_min":0,"x_max":0,"o":"m 643 760 l 32 207 l -4 0 l 924 0 l 964 225 l 431 225 l 1039 779 l 1075 986 l 189 986 l 149 760 z "},"Ž":{"ha":1028,"x_min":0,"x_max":0,"o":"m 643 760 l 32 207 l -4 0 l 924 0 l 964 225 l 431 225 l 1039 779 l 1075 986 l 189 986 l 149 760 z "},"Ż":{"ha":1028,"x_min":0,"x_max":0,"o":"m 643 760 l 32 207 l -4 0 l 924 0 l 964 225 l 431 225 l 1039 779 l 1075 986 l 189 986 l 149 760 z "},"a":{"ha":972,"x_min":0,"x_max":0,"o":"m 285 -21 b 561 108 413 -21 519 26 b 551 0 554 71 551 29 l 850 0 b 868 182 849 38 857 115 l 903 381 b 510 715 943 607 799 715 b 78 457 224 715 104 603 l 389 457 b 508 540 399 519 444 540 b 608 457 579 540 617 513 l 604 431 l 375 419 b 92 346 247 413 151 389 b 8 181 33 304 8 243 b 285 -21 8 39 131 -21 z m 426 150 b 326 215 368 150 326 168 b 461 300 326 258 360 294 l 589 306 l 582 264 b 426 150 569 188 506 150 z "},"b":{"ha":1031,"x_min":0,"x_max":0,"o":"m 611 -21 b 1004 410 907 -21 1004 231 b 697 715 1004 647 835 715 b 443 607 590 715 503 676 l 514 1007 l 208 1007 l 31 0 l 310 0 l 343 103 b 611 -21 388 24 483 -21 z m 515 171 b 383 342 418 171 364 254 l 394 396 b 554 525 410 467 468 525 b 686 389 622 525 686 490 b 515 171 686 297 633 171 z "},"c":{"ha":949,"x_min":0,"x_max":0,"o":"m 457 -21 b 908 240 711 -21 861 92 l 617 299 b 472 188 604 242 564 188 b 342 322 403 188 342 218 b 506 510 342 407 381 510 b 636 406 565 510 618 486 l 946 458 b 510 715 918 646 719 715 b 25 311 144 715 25 500 b 457 -21 25 38 275 -21 z "},"d":{"ha":1032,"x_min":0,"x_max":0,"o":"m 336 -21 b 606 121 461 -21 554 38 l 585 0 l 879 0 l 1057 1007 l 750 1007 l 679 601 b 424 715 640 671 553 715 b 28 292 143 715 28 489 b 336 -21 28 51 197 -21 z m 474 171 b 347 311 404 171 347 204 b 514 525 347 403 392 525 b 640 364 594 525 663 482 l 631 308 b 474 171 617 240 567 171 z "},"e":{"ha":938,"x_min":0,"x_max":0,"o":"m 911 408 b 500 715 911 647 694 715 b 25 311 144 715 25 497 b 464 -21 25 42 276 -21 b 856 154 690 -21 797 71 l 649 254 b 483 174 622 215 579 174 b 318 285 410 174 329 201 l 894 285 b 911 408 906 324 911 369 z m 625 433 l 324 433 b 488 554 338 503 389 554 b 629 457 574 554 629 514 b 625 433 629 447 628 438 z "},"f":{"ha":707,"x_min":0,"x_max":0,"o":"m 713 506 l 746 694 l 535 694 l 539 724 b 651 808 549 781 576 808 b 763 793 690 808 721 806 l 799 990 b 597 1018 728 1010 675 1018 b 235 729 389 1018 267 914 l 228 694 l 81 694 l 47 506 l 194 506 l 104 0 l 411 0 l 501 506 z "},"g":{"ha":983,"x_min":0,"x_max":0,"o":"m 1013 628 l 1046 811 b 956 822 1021 818 986 822 b 744 686 853 822 778 776 b 510 715 676 707 593 715 b 81 463 174 715 81 578 b 193 296 81 382 125 329 b -1 121 44 263 -1 197 b 99 -15 -1 58 29 13 b -57 -136 -14 -31 -57 -74 b 340 -292 -57 -257 110 -292 b 897 -6 814 -292 897 -135 b 596 192 897 164 769 190 l 333 194 b 253 236 271 196 253 210 b 267 268 253 250 258 261 b 483 244 332 251 408 244 b 913 496 821 244 913 381 b 843 638 913 558 886 604 b 906 646 858 643 879 646 b 1013 628 951 646 981 639 z m 490 379 b 382 469 436 379 382 400 b 503 581 382 518 406 581 b 613 490 558 581 613 560 b 490 379 613 442 589 379 z m 283 -42 l 554 -44 b 628 -89 603 -46 628 -54 b 400 -158 628 -128 592 -158 b 172 -75 276 -158 172 -149 b 185 -36 172 -60 176 -47 b 283 -42 214 -39 247 -42 z "},"h":{"ha":1032,"x_min":0,"x_max":0,"o":"m 208 1007 l 31 0 l 336 0 l 392 319 b 549 499 410 418 442 499 b 658 394 604 499 658 475 b 650 322 658 368 654 344 l 592 0 l 899 0 l 957 331 b 969 457 964 375 969 415 b 710 715 969 669 826 715 b 439 575 565 715 488 646 l 514 1007 z "},"i":{"ha":478,"x_min":0,"x_max":0,"o":"m 204 1017 l 161 781 l 475 781 l 518 1017 z m 150 694 l 24 0 l 328 0 l 456 694 z "},"j":{"ha":493,"x_min":0,"x_max":0,"o":"m 219 1017 l 176 781 l 490 781 l 533 1017 z m -8 -286 b 346 1 238 -286 319 -151 l 471 694 l 165 694 l 47 38 b -54 -69 35 -28 14 -69 b -125 -60 -81 -69 -107 -65 l -162 -267 b -8 -286 -126 -276 -72 -286 z "},"k":{"ha":1015,"x_min":0,"x_max":0,"o":"m 718 414 l 1060 694 l 700 694 l 418 467 l 514 1007 l 208 1007 l 31 0 l 336 0 l 367 169 l 489 265 l 625 0 l 943 0 z "},"l":{"ha":489,"x_min":0,"x_max":0,"o":"m 336 0 l 514 1007 l 208 1007 l 31 0 z "},"m":{"ha":1494,"x_min":0,"x_max":0,"o":"m 146 694 l 24 0 l 329 0 l 385 314 b 517 494 403 414 433 494 b 606 393 563 494 606 472 b 600 339 606 378 604 360 l 540 0 l 846 0 l 901 314 b 1032 494 919 413 947 494 b 1121 393 1079 494 1121 472 b 1115 339 1121 378 1119 360 l 1056 0 l 1361 0 l 1425 368 b 1435 468 1431 404 1435 438 b 1188 715 1435 676 1290 715 b 917 558 1049 715 968 643 b 678 715 889 669 785 715 b 419 557 544 715 464 643 l 443 694 z "},"n":{"ha":1025,"x_min":0,"x_max":0,"o":"m 146 694 l 24 0 l 329 0 l 383 308 b 540 499 400 407 431 499 b 650 382 593 499 650 478 b 639 294 650 367 649 340 l 585 0 l 892 0 l 949 324 b 963 451 958 371 963 413 b 703 715 963 674 821 715 b 419 560 556 715 482 649 l 443 694 z "},"o":{"ha":976,"x_min":0,"x_max":0,"o":"m 461 -21 b 950 383 810 -21 950 182 b 514 715 950 656 703 715 b 25 311 165 715 25 513 b 461 -21 25 39 274 -21 z m 469 171 b 335 307 400 171 335 204 b 507 524 335 396 383 524 b 640 388 576 524 640 490 b 469 171 640 299 592 171 z "},"p":{"ha":1026,"x_min":0,"x_max":0,"o":"m 147 694 l -24 -271 l 282 -271 l 346 89 b 601 -21 390 13 486 -21 b 999 406 900 -21 999 231 b 697 715 999 650 826 715 b 425 590 571 715 478 671 l 444 694 z m 510 171 b 379 342 413 171 358 254 l 390 396 b 549 525 406 467 463 525 b 681 389 617 525 681 490 b 510 171 681 297 628 171 z "},"q":{"ha":1025,"x_min":0,"x_max":0,"o":"m 590 106 l 525 -271 l 831 -271 l 1001 694 l 725 694 l 692 590 b 425 715 651 665 561 715 b 28 292 143 715 28 489 b 336 -21 28 51 197 -21 b 590 106 456 -21 549 33 z m 474 171 b 347 311 404 171 347 204 b 515 525 347 403 390 525 b 642 374 593 525 656 483 l 633 319 b 474 171 624 247 574 171 z "},"r":{"ha":704,"x_min":0,"x_max":0,"o":"m 385 481 l 424 694 l 146 694 l 24 0 l 329 0 l 372 247 b 451 407 385 319 410 376 b 585 444 489 436 542 444 b 697 425 619 444 665 436 l 743 699 b 661 713 722 708 696 713 b 385 481 501 713 421 588 z "},"s":{"ha":840,"x_min":0,"x_max":0,"o":"m 399 -21 b 800 239 718 -21 800 108 b 565 442 800 354 736 414 l 393 465 b 336 499 349 472 336 482 b 414 529 336 522 356 529 b 715 454 526 529 638 503 l 865 615 b 450 715 749 685 610 715 b 65 468 167 715 65 610 b 308 263 65 365 118 290 l 471 243 b 532 208 517 236 532 229 b 440 172 532 182 506 172 b 115 268 319 172 199 207 l -44 113 b 399 -21 40 33 194 -21 z "},"t":{"ha":707,"x_min":0,"x_max":0,"o":"m 60 694 l 26 506 l 175 506 l 144 324 b 428 -15 94 38 249 -15 b 610 4 508 -15 554 -10 l 647 224 b 568 218 622 219 596 218 b 453 338 482 218 438 249 l 482 506 l 699 506 l 732 694 l 515 694 l 561 961 l 236 850 l 210 694 z "},"u":{"ha":1015,"x_min":0,"x_max":0,"o":"m 321 -21 b 597 138 464 -21 549 40 l 574 0 l 869 0 l 993 694 l 686 694 l 632 386 b 474 196 613 279 590 196 b 375 303 424 196 375 217 b 388 400 375 328 379 354 l 440 694 l 135 694 l 76 371 b 57 213 68 324 57 261 b 321 -21 57 17 200 -21 z "},"v":{"ha":935,"x_min":0,"x_max":0,"o":"m 56 694 l 236 0 l 576 0 l 1001 694 l 671 694 l 486 333 b 442 236 464 292 456 271 l 436 236 b 425 333 433 271 432 292 l 368 694 z "},"w":{"ha":1318,"x_min":0,"x_max":0,"o":"m 75 694 l 172 0 l 482 0 l 647 346 b 674 417 658 371 668 393 l 679 415 b 682 342 676 390 678 364 l 724 0 l 1024 0 l 1365 694 l 1065 694 l 917 319 b 893 249 910 301 901 278 l 890 249 b 889 319 893 278 892 303 l 851 694 l 579 694 l 408 319 b 383 249 400 301 390 278 l 381 249 b 381 319 382 278 382 301 l 364 694 z "},"x":{"ha":974,"x_min":0,"x_max":0,"o":"m 300 361 l -57 0 l 279 0 l 404 132 b 457 201 424 154 444 179 l 460 201 b 489 132 464 181 476 153 l 571 0 l 907 0 l 671 364 l 1004 694 l 663 694 l 561 581 b 510 510 543 560 522 535 l 507 510 b 481 581 503 535 490 563 l 415 694 l 78 694 z "},"y":{"ha":926,"x_min":0,"x_max":0,"o":"m 139 -283 b 560 -39 303 -283 431 -256 l 993 694 l 668 694 l 489 322 b 453 233 471 283 464 263 l 447 233 b 438 325 449 268 443 293 l 381 694 l 56 694 l 258 -1 l 253 -15 b 126 -64 225 -53 169 -64 b -18 -43 68 -64 24 -57 l -56 -258 b 139 -283 3 -274 56 -283 z "},"z":{"ha":832,"x_min":0,"x_max":0,"o":"m 447 503 l 3 174 l -26 0 l 742 0 l 775 194 l 381 194 l 815 525 l 844 694 l 113 694 l 78 503 z "},"á":{"ha":972,"x_min":0,"x_max":0,"o":"m 285 -21 b 561 108 413 -21 519 26 b 551 0 554 71 551 29 l 850 0 b 868 182 849 38 857 115 l 903 381 b 510 715 943 607 799 715 b 78 457 224 715 104 603 l 389 457 b 508 540 399 519 444 540 b 608 457 579 540 617 513 l 604 431 l 375 419 b 92 346 247 413 151 389 b 8 181 33 304 8 243 b 285 -21 8 39 131 -21 z m 426 150 b 326 215 368 150 326 168 b 461 300 326 258 360 294 l 589 306 l 582 264 b 426 150 569 188 506 150 z "},"ă":{"ha":972,"x_min":0,"x_max":0,"o":"m 285 -21 b 561 108 413 -21 519 26 b 551 0 554 71 551 29 l 850 0 b 868 182 849 38 857 115 l 903 381 b 510 715 943 607 799 715 b 78 457 224 715 104 603 l 389 457 b 508 540 399 519 444 540 b 608 457 579 540 617 513 l 604 431 l 375 419 b 92 346 247 413 151 389 b 8 181 33 304 8 243 b 285 -21 8 39 131 -21 z m 426 150 b 326 215 368 150 326 168 b 461 300 326 258 360 294 l 589 306 l 582 264 b 426 150 569 188 506 150 z "},"â":{"ha":972,"x_min":0,"x_max":0,"o":"m 285 -21 b 561 108 413 -21 519 26 b 551 0 554 71 551 29 l 850 0 b 868 182 849 38 857 115 l 903 381 b 510 715 943 607 799 715 b 78 457 224 715 104 603 l 389 457 b 508 540 399 519 444 540 b 608 457 579 540 617 513 l 604 431 l 375 419 b 92 346 247 413 151 389 b 8 181 33 304 8 243 b 285 -21 8 39 131 -21 z m 426 150 b 326 215 368 150 326 168 b 461 300 326 258 360 294 l 589 306 l 582 264 b 426 150 569 188 506 150 z "},"ä":{"ha":972,"x_min":0,"x_max":0,"o":"m 285 -21 b 561 108 413 -21 519 26 b 551 0 554 71 551 29 l 850 0 b 868 182 849 38 857 115 l 903 381 b 510 715 943 607 799 715 b 78 457 224 715 104 603 l 389 457 b 508 540 399 519 444 540 b 608 457 579 540 617 513 l 604 431 l 375 419 b 92 346 247 413 151 389 b 8 181 33 304 8 243 b 285 -21 8 39 131 -21 z m 426 150 b 326 215 368 150 326 168 b 461 300 326 258 360 294 l 589 306 l 582 264 b 426 150 569 188 506 150 z "},"æ":{"ha":1910,"x_min":0,"x_max":0,"o":"m 285 -21 b 561 108 413 -21 519 26 b 551 0 554 71 551 29 l 850 0 b 868 182 849 38 857 115 l 903 381 b 510 715 943 607 799 715 b 78 457 224 715 104 603 l 389 457 b 508 540 399 519 444 540 b 608 457 579 540 617 513 l 604 431 l 375 419 b 92 346 247 413 151 389 b 8 181 33 304 8 243 b 285 -21 8 39 131 -21 z m 1883 408 b 1472 715 1883 647 1667 715 b 997 311 1117 715 997 497 b 1436 -21 997 42 1249 -21 b 1828 154 1663 -21 1769 71 l 1621 254 b 1456 174 1594 215 1551 174 b 1290 285 1382 174 1301 201 l 1867 285 b 1883 408 1878 324 1883 369 z m 1597 433 l 1296 433 b 1460 554 1310 503 1361 554 b 1601 457 1546 554 1601 514 b 1597 433 1601 447 1600 438 z m 426 150 b 326 215 368 150 326 168 b 461 300 326 258 360 294 l 589 306 l 582 264 b 426 150 569 188 506 150 z "},"ǽ":{"ha":1910,"x_min":0,"x_max":0,"o":"m 285 -21 b 561 108 413 -21 519 26 b 551 0 554 71 551 29 l 850 0 b 868 182 849 38 857 115 l 903 381 b 510 715 943 607 799 715 b 78 457 224 715 104 603 l 389 457 b 508 540 399 519 444 540 b 608 457 579 540 617 513 l 604 431 l 375 419 b 92 346 247 413 151 389 b 8 181 33 304 8 243 b 285 -21 8 39 131 -21 z m 1883 408 b 1472 715 1883 647 1667 715 b 997 311 1117 715 997 497 b 1436 -21 997 42 1249 -21 b 1828 154 1663 -21 1769 71 l 1621 254 b 1456 174 1594 215 1551 174 b 1290 285 1382 174 1301 201 l 1867 285 b 1883 408 1878 324 1883 369 z m 1597 433 l 1296 433 b 1460 554 1310 503 1361 554 b 1601 457 1546 554 1601 514 b 1597 433 1601 447 1600 438 z m 426 150 b 326 215 368 150 326 168 b 461 300 326 258 360 294 l 589 306 l 582 264 b 426 150 569 188 506 150 z "},"à":{"ha":972,"x_min":0,"x_max":0,"o":"m 285 -21 b 561 108 413 -21 519 26 b 551 0 554 71 551 29 l 850 0 b 868 182 849 38 857 115 l 903 381 b 510 715 943 607 799 715 b 78 457 224 715 104 603 l 389 457 b 508 540 399 519 444 540 b 608 457 579 540 617 513 l 604 431 l 375 419 b 92 346 247 413 151 389 b 8 181 33 304 8 243 b 285 -21 8 39 131 -21 z m 426 150 b 326 215 368 150 326 168 b 461 300 326 258 360 294 l 589 306 l 582 264 b 426 150 569 188 506 150 z "},"ā":{"ha":972,"x_min":0,"x_max":0,"o":"m 285 -21 b 561 108 413 -21 519 26 b 551 0 554 71 551 29 l 850 0 b 868 182 849 38 857 115 l 903 381 b 510 715 943 607 799 715 b 78 457 224 715 104 603 l 389 457 b 508 540 399 519 444 540 b 608 457 579 540 617 513 l 604 431 l 375 419 b 92 346 247 413 151 389 b 8 181 33 304 8 243 b 285 -21 8 39 131 -21 z m 426 150 b 326 215 368 150 326 168 b 461 300 326 258 360 294 l 589 306 l 582 264 b 426 150 569 188 506 150 z "},"ą":{"ha":972,"x_min":0,"x_max":0,"o":"m 285 -21 b 561 108 413 -21 519 26 b 551 0 554 71 551 29 l 850 0 b 868 182 849 38 857 115 l 903 381 b 510 715 943 607 799 715 b 78 457 224 715 104 603 l 389 457 b 508 540 399 519 444 540 b 608 457 579 540 617 513 l 604 431 l 375 419 b 92 346 247 413 151 389 b 8 181 33 304 8 243 b 285 -21 8 39 131 -21 z m 426 150 b 326 215 368 150 326 168 b 461 300 326 258 360 294 l 589 306 l 582 264 b 426 150 569 188 506 150 z "},"å":{"ha":972,"x_min":0,"x_max":0,"o":"m 285 -21 b 561 108 413 -21 519 26 b 551 0 554 71 551 29 l 850 0 b 868 182 849 38 857 115 l 903 381 b 510 715 943 607 799 715 b 78 457 224 715 104 603 l 389 457 b 508 540 399 519 444 540 b 608 457 579 540 617 513 l 604 431 l 375 419 b 92 346 247 413 151 389 b 8 181 33 304 8 243 b 285 -21 8 39 131 -21 z m 426 150 b 326 215 368 150 326 168 b 461 300 326 258 360 294 l 589 306 l 582 264 b 426 150 569 188 506 150 z "},"ã":{"ha":972,"x_min":0,"x_max":0,"o":"m 285 -21 b 561 108 413 -21 519 26 b 551 0 554 71 551 29 l 850 0 b 868 182 849 38 857 115 l 903 381 b 510 715 943 607 799 715 b 78 457 224 715 104 603 l 389 457 b 508 540 399 519 444 540 b 608 457 579 540 617 513 l 604 431 l 375 419 b 92 346 247 413 151 389 b 8 181 33 304 8 243 b 285 -21 8 39 131 -21 z m 426 150 b 326 215 368 150 326 168 b 461 300 326 258 360 294 l 589 306 l 582 264 b 426 150 569 188 506 150 z "},"ć":{"ha":949,"x_min":0,"x_max":0,"o":"m 457 -21 b 908 240 711 -21 861 92 l 617 299 b 472 188 604 242 564 188 b 342 322 403 188 342 218 b 506 510 342 407 381 510 b 636 406 565 510 618 486 l 946 458 b 510 715 918 646 719 715 b 25 311 144 715 25 500 b 457 -21 25 38 275 -21 z "},"č":{"ha":949,"x_min":0,"x_max":0,"o":"m 457 -21 b 908 240 711 -21 861 92 l 617 299 b 472 188 604 242 564 188 b 342 322 403 188 342 218 b 506 510 342 407 381 510 b 636 406 565 510 618 486 l 946 458 b 510 715 918 646 719 715 b 25 311 144 715 25 500 b 457 -21 25 38 275 -21 z "},"ç":{"ha":949,"x_min":0,"x_max":0,"o":"m 457 -21 b 908 240 711 -21 861 92 l 617 299 b 472 188 604 242 564 188 b 342 322 403 188 342 218 b 506 510 342 407 381 510 b 636 406 565 510 618 486 l 946 458 b 510 715 918 646 719 715 b 25 311 144 715 25 500 b 457 -21 25 38 275 -21 z "},"ĉ":{"ha":949,"x_min":0,"x_max":0,"o":"m 457 -21 b 908 240 711 -21 861 92 l 617 299 b 472 188 604 242 564 188 b 342 322 403 188 342 218 b 506 510 342 407 381 510 b 636 406 565 510 618 486 l 946 458 b 510 715 918 646 719 715 b 25 311 144 715 25 500 b 457 -21 25 38 275 -21 z "},"ċ":{"ha":949,"x_min":0,"x_max":0,"o":"m 457 -21 b 908 240 711 -21 861 92 l 617 299 b 472 188 604 242 564 188 b 342 322 403 188 342 218 b 506 510 342 407 381 510 b 636 406 565 510 618 486 l 946 458 b 510 715 918 646 719 715 b 25 311 144 715 25 500 b 457 -21 25 38 275 -21 z "},"ď":{"ha":1032,"x_min":0,"x_max":0,"o":"m 336 -21 b 606 121 461 -21 554 38 l 585 0 l 879 0 l 1057 1007 l 750 1007 l 679 601 b 424 715 640 671 553 715 b 28 292 143 715 28 489 b 336 -21 28 51 197 -21 z m 474 171 b 347 311 404 171 347 204 b 514 525 347 403 392 525 b 640 364 594 525 663 482 l 631 308 b 474 171 617 240 567 171 z "},"đ":{"ha":1032,"x_min":0,"x_max":0,"o":"m 336 -21 b 606 121 461 -21 554 38 l 585 0 l 879 0 l 1057 1007 l 750 1007 l 679 601 b 424 715 640 671 553 715 b 28 292 143 715 28 489 b 336 -21 28 51 197 -21 z m 474 171 b 347 311 404 171 347 204 b 514 525 347 403 392 525 b 640 364 594 525 663 482 l 631 308 b 474 171 617 240 567 171 z "},"é":{"ha":938,"x_min":0,"x_max":0,"o":"m 911 408 b 500 715 911 647 694 715 b 25 311 144 715 25 497 b 464 -21 25 42 276 -21 b 856 154 690 -21 797 71 l 649 254 b 483 174 622 215 579 174 b 318 285 410 174 329 201 l 894 285 b 911 408 906 324 911 369 z m 625 433 l 324 433 b 488 554 338 503 389 554 b 629 457 574 554 629 514 b 625 433 629 447 628 438 z "},"ĕ":{"ha":938,"x_min":0,"x_max":0,"o":"m 911 408 b 500 715 911 647 694 715 b 25 311 144 715 25 497 b 464 -21 25 42 276 -21 b 856 154 690 -21 797 71 l 649 254 b 483 174 622 215 579 174 b 318 285 410 174 329 201 l 894 285 b 911 408 906 324 911 369 z m 625 433 l 324 433 b 488 554 338 503 389 554 b 629 457 574 554 629 514 b 625 433 629 447 628 438 z "},"ě":{"ha":938,"x_min":0,"x_max":0,"o":"m 911 408 b 500 715 911 647 694 715 b 25 311 144 715 25 497 b 464 -21 25 42 276 -21 b 856 154 690 -21 797 71 l 649 254 b 483 174 622 215 579 174 b 318 285 410 174 329 201 l 894 285 b 911 408 906 324 911 369 z m 625 433 l 324 433 b 488 554 338 503 389 554 b 629 457 574 554 629 514 b 625 433 629 447 628 438 z "},"ê":{"ha":938,"x_min":0,"x_max":0,"o":"m 911 408 b 500 715 911 647 694 715 b 25 311 144 715 25 497 b 464 -21 25 42 276 -21 b 856 154 690 -21 797 71 l 649 254 b 483 174 622 215 579 174 b 318 285 410 174 329 201 l 894 285 b 911 408 906 324 911 369 z m 625 433 l 324 433 b 488 554 338 503 389 554 b 629 457 574 554 629 514 b 625 433 629 447 628 438 z "},"ë":{"ha":938,"x_min":0,"x_max":0,"o":"m 911 408 b 500 715 911 647 694 715 b 25 311 144 715 25 497 b 464 -21 25 42 276 -21 b 856 154 690 -21 797 71 l 649 254 b 483 174 622 215 579 174 b 318 285 410 174 329 201 l 894 285 b 911 408 906 324 911 369 z m 625 433 l 324 433 b 488 554 338 503 389 554 b 629 457 574 554 629 514 b 625 433 629 447 628 438 z "},"ė":{"ha":938,"x_min":0,"x_max":0,"o":"m 911 408 b 500 715 911 647 694 715 b 25 311 144 715 25 497 b 464 -21 25 42 276 -21 b 856 154 690 -21 797 71 l 649 254 b 483 174 622 215 579 174 b 318 285 410 174 329 201 l 894 285 b 911 408 906 324 911 369 z m 625 433 l 324 433 b 488 554 338 503 389 554 b 629 457 574 554 629 514 b 625 433 629 447 628 438 z "},"è":{"ha":938,"x_min":0,"x_max":0,"o":"m 911 408 b 500 715 911 647 694 715 b 25 311 144 715 25 497 b 464 -21 25 42 276 -21 b 856 154 690 -21 797 71 l 649 254 b 483 174 622 215 579 174 b 318 285 410 174 329 201 l 894 285 b 911 408 906 324 911 369 z m 625 433 l 324 433 b 488 554 338 503 389 554 b 629 457 574 554 629 514 b 625 433 629 447 628 438 z "},"ē":{"ha":938,"x_min":0,"x_max":0,"o":"m 911 408 b 500 715 911 647 694 715 b 25 311 144 715 25 497 b 464 -21 25 42 276 -21 b 856 154 690 -21 797 71 l 649 254 b 483 174 622 215 579 174 b 318 285 410 174 329 201 l 894 285 b 911 408 906 324 911 369 z m 625 433 l 324 433 b 488 554 338 503 389 554 b 629 457 574 554 629 514 b 625 433 629 447 628 438 z "},"ę":{"ha":938,"x_min":0,"x_max":0,"o":"m 911 408 b 500 715 911 647 694 715 b 25 311 144 715 25 497 b 464 -21 25 42 276 -21 b 856 154 690 -21 797 71 l 649 254 b 483 174 622 215 579 174 b 318 285 410 174 329 201 l 894 285 b 911 408 906 324 911 369 z m 625 433 l 324 433 b 488 554 338 503 389 554 b 629 457 574 554 629 514 b 625 433 629 447 628 438 z "},"ğ":{"ha":983,"x_min":0,"x_max":0,"o":"m 1013 628 l 1046 811 b 956 822 1021 818 986 822 b 744 686 853 822 778 776 b 510 715 676 707 593 715 b 81 463 174 715 81 578 b 193 296 81 382 125 329 b -1 121 44 263 -1 197 b 99 -15 -1 58 29 13 b -57 -136 -14 -31 -57 -74 b 340 -292 -57 -257 110 -292 b 897 -6 814 -292 897 -135 b 596 192 897 164 769 190 l 333 194 b 253 236 271 196 253 210 b 267 268 253 250 258 261 b 483 244 332 251 408 244 b 913 496 821 244 913 381 b 843 638 913 558 886 604 b 906 646 858 643 879 646 b 1013 628 951 646 981 639 z m 490 379 b 382 469 436 379 382 400 b 503 581 382 518 406 581 b 613 490 558 581 613 560 b 490 379 613 442 589 379 z m 283 -42 l 554 -44 b 628 -89 603 -46 628 -54 b 400 -158 628 -128 592 -158 b 172 -75 276 -158 172 -149 b 185 -36 172 -60 176 -47 b 283 -42 214 -39 247 -42 z "},"ĝ":{"ha":983,"x_min":0,"x_max":0,"o":"m 1013 628 l 1046 811 b 956 822 1021 818 986 822 b 744 686 853 822 778 776 b 510 715 676 707 593 715 b 81 463 174 715 81 578 b 193 296 81 382 125 329 b -1 121 44 263 -1 197 b 99 -15 -1 58 29 13 b -57 -136 -14 -31 -57 -74 b 340 -292 -57 -257 110 -292 b 897 -6 814 -292 897 -135 b 596 192 897 164 769 190 l 333 194 b 253 236 271 196 253 210 b 267 268 253 250 258 261 b 483 244 332 251 408 244 b 913 496 821 244 913 381 b 843 638 913 558 886 604 b 906 646 858 643 879 646 b 1013 628 951 646 981 639 z m 490 379 b 382 469 436 379 382 400 b 503 581 382 518 406 581 b 613 490 558 581 613 560 b 490 379 613 442 589 379 z m 283 -42 l 554 -44 b 628 -89 603 -46 628 -54 b 400 -158 628 -128 592 -158 b 172 -75 276 -158 172 -149 b 185 -36 172 -60 176 -47 b 283 -42 214 -39 247 -42 z "},"ģ":{"ha":983,"x_min":0,"x_max":0,"o":"m 1013 628 l 1046 811 b 956 822 1021 818 986 822 b 744 686 853 822 778 776 b 510 715 676 707 593 715 b 81 463 174 715 81 578 b 193 296 81 382 125 329 b -1 121 44 263 -1 197 b 99 -15 -1 58 29 13 b -57 -136 -14 -31 -57 -74 b 340 -292 -57 -257 110 -292 b 897 -6 814 -292 897 -135 b 596 192 897 164 769 190 l 333 194 b 253 236 271 196 253 210 b 267 268 253 250 258 261 b 483 244 332 251 408 244 b 913 496 821 244 913 381 b 843 638 913 558 886 604 b 906 646 858 643 879 646 b 1013 628 951 646 981 639 z m 490 379 b 382 469 436 379 382 400 b 503 581 382 518 406 581 b 613 490 558 581 613 560 b 490 379 613 442 589 379 z m 283 -42 l 554 -44 b 628 -89 603 -46 628 -54 b 400 -158 628 -128 592 -158 b 172 -75 276 -158 172 -149 b 185 -36 172 -60 176 -47 b 283 -42 214 -39 247 -42 z "},"ġ":{"ha":983,"x_min":0,"x_max":0,"o":"m 1013 628 l 1046 811 b 956 822 1021 818 986 822 b 744 686 853 822 778 776 b 510 715 676 707 593 715 b 81 463 174 715 81 578 b 193 296 81 382 125 329 b -1 121 44 263 -1 197 b 99 -15 -1 58 29 13 b -57 -136 -14 -31 -57 -74 b 340 -292 -57 -257 110 -292 b 897 -6 814 -292 897 -135 b 596 192 897 164 769 190 l 333 194 b 253 236 271 196 253 210 b 267 268 253 250 258 261 b 483 244 332 251 408 244 b 913 496 821 244 913 381 b 843 638 913 558 886 604 b 906 646 858 643 879 646 b 1013 628 951 646 981 639 z m 490 379 b 382 469 436 379 382 400 b 503 581 382 518 406 581 b 613 490 558 581 613 560 b 490 379 613 442 589 379 z m 283 -42 l 554 -44 b 628 -89 603 -46 628 -54 b 400 -158 628 -128 592 -158 b 172 -75 276 -158 172 -149 b 185 -36 172 -60 176 -47 b 283 -42 214 -39 247 -42 z "},"ħ":{"ha":1032,"x_min":0,"x_max":0,"o":"m 208 1007 l 31 0 l 336 0 l 392 319 b 549 499 410 418 442 499 b 658 394 604 499 658 475 b 650 322 658 368 654 344 l 592 0 l 899 0 l 957 331 b 969 457 964 375 969 415 b 710 715 969 669 826 715 b 439 575 565 715 488 646 l 514 1007 z "},"ĥ":{"ha":1032,"x_min":0,"x_max":0,"o":"m 208 1007 l 31 0 l 336 0 l 392 319 b 549 499 410 418 442 499 b 658 394 604 499 658 475 b 650 322 658 368 654 344 l 592 0 l 899 0 l 957 331 b 969 457 964 375 969 415 b 710 715 969 669 826 715 b 439 575 565 715 488 646 l 514 1007 z "},"í":{"ha":478,"x_min":0,"x_max":0,"o":"m 204 1017 l 161 781 l 475 781 l 518 1017 z m 150 694 l 24 0 l 328 0 l 456 694 z "},"ĭ":{"ha":478,"x_min":0,"x_max":0,"o":"m 204 1017 l 161 781 l 475 781 l 518 1017 z m 150 694 l 24 0 l 328 0 l 456 694 z "},"î":{"ha":478,"x_min":0,"x_max":0,"o":"m 204 1017 l 161 781 l 475 781 l 518 1017 z m 150 694 l 24 0 l 328 0 l 456 694 z "},"ï":{"ha":478,"x_min":0,"x_max":0,"o":"m 204 1017 l 161 781 l 475 781 l 518 1017 z m 150 694 l 24 0 l 328 0 l 456 694 z "},"ı":{"ha":478,"x_min":0,"x_max":0,"o":"m 204 1017 l 161 781 l 475 781 l 518 1017 z m 150 694 l 24 0 l 328 0 l 456 694 z "},"ì":{"ha":478,"x_min":0,"x_max":0,"o":"m 204 1017 l 161 781 l 475 781 l 518 1017 z m 150 694 l 24 0 l 328 0 l 456 694 z "},"ĳ":{"ha":971,"x_min":0,"x_max":0,"o":"m 204 1017 l 161 781 l 475 781 l 518 1017 z m 697 1017 l 654 781 l 968 781 l 1011 1017 z m 150 694 l 24 0 l 328 0 l 456 694 z m 469 -286 b 824 1 715 -286 797 -151 l 949 694 l 643 694 l 525 38 b 424 -69 513 -28 492 -69 b 353 -60 397 -69 371 -65 l 315 -267 b 469 -286 351 -276 406 -286 z "},"ī":{"ha":478,"x_min":0,"x_max":0,"o":"m 204 1017 l 161 781 l 475 781 l 518 1017 z m 150 694 l 24 0 l 328 0 l 456 694 z "},"į":{"ha":478,"x_min":0,"x_max":0,"o":"m 204 1017 l 161 781 l 475 781 l 518 1017 z m 150 694 l 24 0 l 328 0 l 456 694 z "},"ĩ":{"ha":478,"x_min":0,"x_max":0,"o":"m 204 1017 l 161 781 l 475 781 l 518 1017 z m 150 694 l 24 0 l 328 0 l 456 694 z "},"ĵ":{"ha":493,"x_min":0,"x_max":0,"o":"m 219 1017 l 176 781 l 490 781 l 533 1017 z m -8 -286 b 346 1 238 -286 319 -151 l 471 694 l 165 694 l 47 38 b -54 -69 35 -28 14 -69 b -125 -60 -81 -69 -107 -65 l -162 -267 b -8 -286 -126 -276 -72 -286 z "},"ķ":{"ha":1015,"x_min":0,"x_max":0,"o":"m 718 414 l 1060 694 l 700 694 l 418 467 l 514 1007 l 208 1007 l 31 0 l 336 0 l 367 169 l 489 265 l 625 0 l 943 0 z "},"ĸ":{"ha":1015,"x_min":0,"x_max":0,"o":"m 718 414 l 1060 694 l 700 694 l 418 467 l 514 1007 l 208 1007 l 31 0 l 336 0 l 367 169 l 489 265 l 625 0 l 943 0 z "},"ĺ":{"ha":489,"x_min":0,"x_max":0,"o":"m 336 0 l 514 1007 l 208 1007 l 31 0 z "},"ľ":{"ha":489,"x_min":0,"x_max":0,"o":"m 336 0 l 514 1007 l 208 1007 l 31 0 z "},"ļ":{"ha":489,"x_min":0,"x_max":0,"o":"m 336 0 l 514 1007 l 208 1007 l 31 0 z "},"ŀ":{"ha":489,"x_min":0,"x_max":0,"o":"m 336 0 l 514 1007 l 208 1007 l 31 0 z "},"ł":{"ha":489,"x_min":0,"x_max":0,"o":"m 336 0 l 514 1007 l 208 1007 l 31 0 z "},"ń":{"ha":1025,"x_min":0,"x_max":0,"o":"m 146 694 l 24 0 l 329 0 l 383 308 b 540 499 400 407 431 499 b 650 382 593 499 650 478 b 639 294 650 367 649 340 l 585 0 l 892 0 l 949 324 b 963 451 958 371 963 413 b 703 715 963 674 821 715 b 419 560 556 715 482 649 l 443 694 z "},"ŉ":{"ha":1025,"x_min":0,"x_max":0,"o":"m 146 694 l 24 0 l 329 0 l 383 308 b 540 499 400 407 431 499 b 650 382 593 499 650 478 b 639 294 650 367 649 340 l 585 0 l 892 0 l 949 324 b 963 451 958 371 963 413 b 703 715 963 674 821 715 b 419 560 556 715 482 649 l 443 694 z "},"ň":{"ha":1025,"x_min":0,"x_max":0,"o":"m 146 694 l 24 0 l 329 0 l 383 308 b 540 499 400 407 431 499 b 650 382 593 499 650 478 b 639 294 650 367 649 340 l 585 0 l 892 0 l 949 324 b 963 451 958 371 963 413 b 703 715 963 674 821 715 b 419 560 556 715 482 649 l 443 694 z "},"ņ":{"ha":1025,"x_min":0,"x_max":0,"o":"m 146 694 l 24 0 l 329 0 l 383 308 b 540 499 400 407 431 499 b 650 382 593 499 650 478 b 639 294 650 367 649 340 l 585 0 l 892 0 l 949 324 b 963 451 958 371 963 413 b 703 715 963 674 821 715 b 419 560 556 715 482 649 l 443 694 z "},"ñ":{"ha":1025,"x_min":0,"x_max":0,"o":"m 146 694 l 24 0 l 329 0 l 383 308 b 540 499 400 407 431 499 b 650 382 593 499 650 478 b 639 294 650 367 649 340 l 585 0 l 892 0 l 949 324 b 963 451 958 371 963 413 b 703 715 963 674 821 715 b 419 560 556 715 482 649 l 443 694 z "},"ŋ":{"ha":1025,"x_min":0,"x_max":0,"o":"m 146 694 l 24 0 l 329 0 l 383 308 b 540 499 400 407 431 499 b 650 382 593 499 650 478 b 639 294 650 367 649 340 l 585 0 l 892 0 l 949 324 b 963 451 958 371 963 413 b 703 715 963 674 821 715 b 419 560 556 715 482 649 l 443 694 z "},"ó":{"ha":976,"x_min":0,"x_max":0,"o":"m 461 -21 b 950 383 810 -21 950 182 b 514 715 950 656 703 715 b 25 311 165 715 25 513 b 461 -21 25 39 274 -21 z m 469 171 b 335 307 400 171 335 204 b 507 524 335 396 383 524 b 640 388 576 524 640 490 b 469 171 640 299 592 171 z "},"ŏ":{"ha":976,"x_min":0,"x_max":0,"o":"m 461 -21 b 950 383 810 -21 950 182 b 514 715 950 656 703 715 b 25 311 165 715 25 513 b 461 -21 25 39 274 -21 z m 469 171 b 335 307 400 171 335 204 b 507 524 335 396 383 524 b 640 388 576 524 640 490 b 469 171 640 299 592 171 z "},"ô":{"ha":976,"x_min":0,"x_max":0,"o":"m 461 -21 b 950 383 810 -21 950 182 b 514 715 950 656 703 715 b 25 311 165 715 25 513 b 461 -21 25 39 274 -21 z m 469 171 b 335 307 400 171 335 204 b 507 524 335 396 383 524 b 640 388 576 524 640 490 b 469 171 640 299 592 171 z "},"ö":{"ha":976,"x_min":0,"x_max":0,"o":"m 461 -21 b 950 383 810 -21 950 182 b 514 715 950 656 703 715 b 25 311 165 715 25 513 b 461 -21 25 39 274 -21 z m 469 171 b 335 307 400 171 335 204 b 507 524 335 396 383 524 b 640 388 576 524 640 490 b 469 171 640 299 592 171 z "},"œ":{"ha":1914,"x_min":0,"x_max":0,"o":"m 461 -21 b 950 383 810 -21 950 182 b 514 715 950 656 703 715 b 25 311 165 715 25 513 b 461 -21 25 39 274 -21 z m 1888 408 b 1476 715 1888 647 1671 715 b 1001 311 1121 715 1001 497 b 1440 -21 1001 42 1253 -21 b 1832 154 1667 -21 1774 71 l 1625 254 b 1460 174 1599 215 1556 174 b 1294 285 1386 174 1306 201 l 1871 285 b 1888 408 1882 324 1888 369 z m 1601 433 l 1300 433 b 1464 554 1314 503 1365 554 b 1606 457 1550 554 1606 514 b 1601 433 1606 447 1604 438 z m 469 171 b 335 307 400 171 335 204 b 507 524 335 396 383 524 b 640 388 576 524 640 490 b 469 171 640 299 592 171 z "},"ò":{"ha":976,"x_min":0,"x_max":0,"o":"m 461 -21 b 950 383 810 -21 950 182 b 514 715 950 656 703 715 b 25 311 165 715 25 513 b 461 -21 25 39 274 -21 z m 469 171 b 335 307 400 171 335 204 b 507 524 335 396 383 524 b 640 388 576 524 640 490 b 469 171 640 299 592 171 z "},"ő":{"ha":976,"x_min":0,"x_max":0,"o":"m 461 -21 b 950 383 810 -21 950 182 b 514 715 950 656 703 715 b 25 311 165 715 25 513 b 461 -21 25 39 274 -21 z m 469 171 b 335 307 400 171 335 204 b 507 524 335 396 383 524 b 640 388 576 524 640 490 b 469 171 640 299 592 171 z "},"ō":{"ha":976,"x_min":0,"x_max":0,"o":"m 461 -21 b 950 383 810 -21 950 182 b 514 715 950 656 703 715 b 25 311 165 715 25 513 b 461 -21 25 39 274 -21 z m 469 171 b 335 307 400 171 335 204 b 507 524 335 396 383 524 b 640 388 576 524 640 490 b 469 171 640 299 592 171 z "},"ø":{"ha":976,"x_min":0,"x_max":0,"o":"m 461 -21 b 950 383 810 -21 950 182 b 514 715 950 656 703 715 b 25 311 165 715 25 513 b 461 -21 25 39 274 -21 z m 469 171 b 335 307 400 171 335 204 b 507 524 335 396 383 524 b 640 388 576 524 640 490 b 469 171 640 299 592 171 z "},"ǿ":{"ha":976,"x_min":0,"x_max":0,"o":"m 461 -21 b 950 383 810 -21 950 182 b 514 715 950 656 703 715 b 25 311 165 715 25 513 b 461 -21 25 39 274 -21 z m 469 171 b 335 307 400 171 335 204 b 507 524 335 396 383 524 b 640 388 576 524 640 490 b 469 171 640 299 592 171 z "},"õ":{"ha":976,"x_min":0,"x_max":0,"o":"m 461 -21 b 950 383 810 -21 950 182 b 514 715 950 656 703 715 b 25 311 165 715 25 513 b 461 -21 25 39 274 -21 z m 469 171 b 335 307 400 171 335 204 b 507 524 335 396 383 524 b 640 388 576 524 640 490 b 469 171 640 299 592 171 z "},"ŕ":{"ha":704,"x_min":0,"x_max":0,"o":"m 385 481 l 424 694 l 146 694 l 24 0 l 329 0 l 372 247 b 451 407 385 319 410 376 b 585 444 489 436 542 444 b 697 425 619 444 665 436 l 743 699 b 661 713 722 708 696 713 b 385 481 501 713 421 588 z "},"ř":{"ha":704,"x_min":0,"x_max":0,"o":"m 385 481 l 424 694 l 146 694 l 24 0 l 329 0 l 372 247 b 451 407 385 319 410 376 b 585 444 489 436 542 444 b 697 425 619 444 665 436 l 743 699 b 661 713 722 708 696 713 b 385 481 501 713 421 588 z "},"ŗ":{"ha":704,"x_min":0,"x_max":0,"o":"m 385 481 l 424 694 l 146 694 l 24 0 l 329 0 l 372 247 b 451 407 385 319 410 376 b 585 444 489 436 542 444 b 697 425 619 444 665 436 l 743 699 b 661 713 722 708 696 713 b 385 481 501 713 421 588 z "},"ś":{"ha":840,"x_min":0,"x_max":0,"o":"m 399 -21 b 800 239 718 -21 800 108 b 565 442 800 354 736 414 l 393 465 b 336 499 349 472 336 482 b 414 529 336 522 356 529 b 715 454 526 529 638 503 l 865 615 b 450 715 749 685 610 715 b 65 468 167 715 65 610 b 308 263 65 365 118 290 l 471 243 b 532 208 517 236 532 229 b 440 172 532 182 506 172 b 115 268 319 172 199 207 l -44 113 b 399 -21 40 33 194 -21 z "},"š":{"ha":840,"x_min":0,"x_max":0,"o":"m 399 -21 b 800 239 718 -21 800 108 b 565 442 800 354 736 414 l 393 465 b 336 499 349 472 336 482 b 414 529 336 522 356 529 b 715 454 526 529 638 503 l 865 615 b 450 715 749 685 610 715 b 65 468 167 715 65 610 b 308 263 65 365 118 290 l 471 243 b 532 208 517 236 532 229 b 440 172 532 182 506 172 b 115 268 319 172 199 207 l -44 113 b 399 -21 40 33 194 -21 z "},"ş":{"ha":840,"x_min":0,"x_max":0,"o":"m 399 -21 b 800 239 718 -21 800 108 b 565 442 800 354 736 414 l 393 465 b 336 499 349 472 336 482 b 414 529 336 522 356 529 b 715 454 526 529 638 503 l 865 615 b 450 715 749 685 610 715 b 65 468 167 715 65 610 b 308 263 65 365 118 290 l 471 243 b 532 208 517 236 532 229 b 440 172 532 182 506 172 b 115 268 319 172 199 207 l -44 113 b 399 -21 40 33 194 -21 z "},"ŝ":{"ha":840,"x_min":0,"x_max":0,"o":"m 399 -21 b 800 239 718 -21 800 108 b 565 442 800 354 736 414 l 393 465 b 336 499 349 472 336 482 b 414 529 336 522 356 529 b 715 454 526 529 638 503 l 865 615 b 450 715 749 685 610 715 b 65 468 167 715 65 610 b 308 263 65 365 118 290 l 471 243 b 532 208 517 236 532 229 b 440 172 532 182 506 172 b 115 268 319 172 199 207 l -44 113 b 399 -21 40 33 194 -21 z "},"ș":{"ha":840,"x_min":0,"x_max":0,"o":"m 399 -21 b 800 239 718 -21 800 108 b 565 442 800 354 736 414 l 393 465 b 336 499 349 472 336 482 b 414 529 336 522 356 529 b 715 454 526 529 638 503 l 865 615 b 450 715 749 685 610 715 b 65 468 167 715 65 610 b 308 263 65 365 118 290 l 471 243 b 532 208 517 236 532 229 b 440 172 532 182 506 172 b 115 268 319 172 199 207 l -44 113 b 399 -21 40 33 194 -21 z "},"ŧ":{"ha":707,"x_min":0,"x_max":0,"o":"m 60 694 l 26 506 l 175 506 l 144 324 b 428 -15 94 38 249 -15 b 610 4 508 -15 554 -10 l 647 224 b 568 218 622 219 596 218 b 453 338 482 218 438 249 l 482 506 l 699 506 l 732 694 l 515 694 l 561 961 l 236 850 l 210 694 z "},"ť":{"ha":707,"x_min":0,"x_max":0,"o":"m 60 694 l 26 506 l 175 506 l 144 324 b 428 -15 94 38 249 -15 b 610 4 508 -15 554 -10 l 647 224 b 568 218 622 219 596 218 b 453 338 482 218 438 249 l 482 506 l 699 506 l 732 694 l 515 694 l 561 961 l 236 850 l 210 694 z "},"þ":{"ha":1026,"x_min":0,"x_max":0,"o":"m 147 694 l -24 -271 l 282 -271 l 346 89 b 601 -21 390 13 486 -21 b 999 406 900 -21 999 231 b 697 715 999 650 826 715 b 425 590 571 715 478 671 l 444 694 z m 510 171 b 379 342 413 171 358 254 l 390 396 b 549 525 406 467 463 525 b 681 389 617 525 681 490 b 510 171 681 297 628 171 z "},"ú":{"ha":1015,"x_min":0,"x_max":0,"o":"m 321 -21 b 597 138 464 -21 549 40 l 574 0 l 869 0 l 993 694 l 686 694 l 632 386 b 474 196 613 279 590 196 b 375 303 424 196 375 217 b 388 400 375 328 379 354 l 440 694 l 135 694 l 76 371 b 57 213 68 324 57 261 b 321 -21 57 17 200 -21 z "},"ŭ":{"ha":1015,"x_min":0,"x_max":0,"o":"m 321 -21 b 597 138 464 -21 549 40 l 574 0 l 869 0 l 993 694 l 686 694 l 632 386 b 474 196 613 279 590 196 b 375 303 424 196 375 217 b 388 400 375 328 379 354 l 440 694 l 135 694 l 76 371 b 57 213 68 324 57 261 b 321 -21 57 17 200 -21 z "},"û":{"ha":1015,"x_min":0,"x_max":0,"o":"m 321 -21 b 597 138 464 -21 549 40 l 574 0 l 869 0 l 993 694 l 686 694 l 632 386 b 474 196 613 279 590 196 b 375 303 424 196 375 217 b 388 400 375 328 379 354 l 440 694 l 135 694 l 76 371 b 57 213 68 324 57 261 b 321 -21 57 17 200 -21 z "},"ü":{"ha":1015,"x_min":0,"x_max":0,"o":"m 321 -21 b 597 138 464 -21 549 40 l 574 0 l 869 0 l 993 694 l 686 694 l 632 386 b 474 196 613 279 590 196 b 375 303 424 196 375 217 b 388 400 375 328 379 354 l 440 694 l 135 694 l 76 371 b 57 213 68 324 57 261 b 321 -21 57 17 200 -21 z "},"ù":{"ha":1015,"x_min":0,"x_max":0,"o":"m 321 -21 b 597 138 464 -21 549 40 l 574 0 l 869 0 l 993 694 l 686 694 l 632 386 b 474 196 613 279 590 196 b 375 303 424 196 375 217 b 388 400 375 328 379 354 l 440 694 l 135 694 l 76 371 b 57 213 68 324 57 261 b 321 -21 57 17 200 -21 z "},"ű":{"ha":1015,"x_min":0,"x_max":0,"o":"m 321 -21 b 597 138 464 -21 549 40 l 574 0 l 869 0 l 993 694 l 686 694 l 632 386 b 474 196 613 279 590 196 b 375 303 424 196 375 217 b 388 400 375 328 379 354 l 440 694 l 135 694 l 76 371 b 57 213 68 324 57 261 b 321 -21 57 17 200 -21 z "},"ū":{"ha":1015,"x_min":0,"x_max":0,"o":"m 321 -21 b 597 138 464 -21 549 40 l 574 0 l 869 0 l 993 694 l 686 694 l 632 386 b 474 196 613 279 590 196 b 375 303 424 196 375 217 b 388 400 375 328 379 354 l 440 694 l 135 694 l 76 371 b 57 213 68 324 57 261 b 321 -21 57 17 200 -21 z "},"ų":{"ha":1015,"x_min":0,"x_max":0,"o":"m 321 -21 b 597 138 464 -21 549 40 l 574 0 l 869 0 l 993 694 l 686 694 l 632 386 b 474 196 613 279 590 196 b 375 303 424 196 375 217 b 388 400 375 328 379 354 l 440 694 l 135 694 l 76 371 b 57 213 68 324 57 261 b 321 -21 57 17 200 -21 z "},"ů":{"ha":1015,"x_min":0,"x_max":0,"o":"m 321 -21 b 597 138 464 -21 549 40 l 574 0 l 869 0 l 993 694 l 686 694 l 632 386 b 474 196 613 279 590 196 b 375 303 424 196 375 217 b 388 400 375 328 379 354 l 440 694 l 135 694 l 76 371 b 57 213 68 324 57 261 b 321 -21 57 17 200 -21 z "},"ũ":{"ha":1015,"x_min":0,"x_max":0,"o":"m 321 -21 b 597 138 464 -21 549 40 l 574 0 l 869 0 l 993 694 l 686 694 l 632 386 b 474 196 613 279 590 196 b 375 303 424 196 375 217 b 388 400 375 328 379 354 l 440 694 l 135 694 l 76 371 b 57 213 68 324 57 261 b 321 -21 57 17 200 -21 z "},"ẃ":{"ha":1318,"x_min":0,"x_max":0,"o":"m 75 694 l 172 0 l 482 0 l 647 346 b 674 417 658 371 668 393 l 679 415 b 682 342 676 390 678 364 l 724 0 l 1024 0 l 1365 694 l 1065 694 l 917 319 b 893 249 910 301 901 278 l 890 249 b 889 319 893 278 892 303 l 851 694 l 579 694 l 408 319 b 383 249 400 301 390 278 l 381 249 b 381 319 382 278 382 301 l 364 694 z "},"ŵ":{"ha":1318,"x_min":0,"x_max":0,"o":"m 75 694 l 172 0 l 482 0 l 647 346 b 674 417 658 371 668 393 l 679 415 b 682 342 676 390 678 364 l 724 0 l 1024 0 l 1365 694 l 1065 694 l 917 319 b 893 249 910 301 901 278 l 890 249 b 889 319 893 278 892 303 l 851 694 l 579 694 l 408 319 b 383 249 400 301 390 278 l 381 249 b 381 319 382 278 382 301 l 364 694 z "},"ẅ":{"ha":1318,"x_min":0,"x_max":0,"o":"m 75 694 l 172 0 l 482 0 l 647 346 b 674 417 658 371 668 393 l 679 415 b 682 342 676 390 678 364 l 724 0 l 1024 0 l 1365 694 l 1065 694 l 917 319 b 893 249 910 301 901 278 l 890 249 b 889 319 893 278 892 303 l 851 694 l 579 694 l 408 319 b 383 249 400 301 390 278 l 381 249 b 381 319 382 278 382 301 l 364 694 z "},"ẁ":{"ha":1318,"x_min":0,"x_max":0,"o":"m 75 694 l 172 0 l 482 0 l 647 346 b 674 417 658 371 668 393 l 679 415 b 682 342 676 390 678 364 l 724 0 l 1024 0 l 1365 694 l 1065 694 l 917 319 b 893 249 910 301 901 278 l 890 249 b 889 319 893 278 892 303 l 851 694 l 579 694 l 408 319 b 383 249 400 301 390 278 l 381 249 b 381 319 382 278 382 301 l 364 694 z "},"ý":{"ha":926,"x_min":0,"x_max":0,"o":"m 139 -283 b 560 -39 303 -283 431 -256 l 993 694 l 668 694 l 489 322 b 453 233 471 283 464 263 l 447 233 b 438 325 449 268 443 293 l 381 694 l 56 694 l 258 -1 l 253 -15 b 126 -64 225 -53 169 -64 b -18 -43 68 -64 24 -57 l -56 -258 b 139 -283 3 -274 56 -283 z "},"ŷ":{"ha":926,"x_min":0,"x_max":0,"o":"m 139 -283 b 560 -39 303 -283 431 -256 l 993 694 l 668 694 l 489 322 b 453 233 471 283 464 263 l 447 233 b 438 325 449 268 443 293 l 381 694 l 56 694 l 258 -1 l 253 -15 b 126 -64 225 -53 169 -64 b -18 -43 68 -64 24 -57 l -56 -258 b 139 -283 3 -274 56 -283 z "},"ÿ":{"ha":926,"x_min":0,"x_max":0,"o":"m 139 -283 b 560 -39 303 -283 431 -256 l 993 694 l 668 694 l 489 322 b 453 233 471 283 464 263 l 447 233 b 438 325 449 268 443 293 l 381 694 l 56 694 l 258 -1 l 253 -15 b 126 -64 225 -53 169 -64 b -18 -43 68 -64 24 -57 l -56 -258 b 139 -283 3 -274 56 -283 z "},"ỳ":{"ha":926,"x_min":0,"x_max":0,"o":"m 139 -283 b 560 -39 303 -283 431 -256 l 993 694 l 668 694 l 489 322 b 453 233 471 283 464 263 l 447 233 b 438 325 449 268 443 293 l 381 694 l 56 694 l 258 -1 l 253 -15 b 126 -64 225 -53 169 -64 b -18 -43 68 -64 24 -57 l -56 -258 b 139 -283 3 -274 56 -283 z "},"ź":{"ha":832,"x_min":0,"x_max":0,"o":"m 447 503 l 3 174 l -26 0 l 742 0 l 775 194 l 381 194 l 815 525 l 844 694 l 113 694 l 78 503 z "},"ž":{"ha":832,"x_min":0,"x_max":0,"o":"m 447 503 l 3 174 l -26 0 l 742 0 l 775 194 l 381 194 l 815 525 l 844 694 l 113 694 l 78 503 z "},"ż":{"ha":832,"x_min":0,"x_max":0,"o":"m 447 503 l 3 174 l -26 0 l 742 0 l 775 194 l 381 194 l 815 525 l 844 694 l 113 694 l 78 503 z "},"ß":{"ha":1681,"x_min":0,"x_max":0,"o":"m 399 -21 b 800 239 718 -21 800 108 b 565 442 800 354 736 414 l 393 465 b 336 499 349 472 336 482 b 414 529 336 522 356 529 b 715 454 526 529 638 503 l 865 615 b 450 715 749 685 610 715 b 65 468 167 715 65 610 b 308 263 65 365 118 290 l 471 243 b 532 208 517 236 532 229 b 440 172 532 182 506 172 b 115 268 319 172 199 207 l -44 113 b 399 -21 40 33 194 -21 z m 1239 -21 b 1640 239 1558 -21 1640 108 b 1406 442 1640 354 1576 414 l 1233 465 b 1176 499 1189 472 1176 482 b 1254 529 1176 522 1196 529 b 1556 454 1367 529 1478 503 l 1706 615 b 1290 715 1589 685 1450 715 b 906 468 1007 715 906 610 b 1149 263 906 365 958 290 l 1311 243 b 1372 208 1357 236 1372 229 b 1281 172 1372 182 1346 172 b 956 268 1160 172 1039 207 l 796 113 b 1239 -21 881 33 1035 -21 z "},",":{"ha":433,"x_min":0,"x_max":0,"o":"m 6 -121 l 28 -235 b 301 -6 107 -228 268 -186 l 351 274 l 57 274 l 8 0 l 151 0 l 149 -15 b 6 -121 133 -93 61 -114 z "},";":{"ha":433,"x_min":0,"x_max":0,"o":"m 6 -121 l 28 -235 b 301 -6 107 -228 268 -186 l 351 274 l 57 274 l 8 0 l 151 0 l 149 -15 b 6 -121 133 -93 61 -114 z "},":":{"ha":443,"x_min":0,"x_max":0,"o":"m 313 0 l 358 263 l 54 263 l 8 0 z "},".":{"ha":443,"x_min":0,"x_max":0,"o":"m 313 0 l 358 263 l 54 263 l 8 0 z "},"-":{"ha":699,"x_min":0,"x_max":0,"o":"m 669 501 l 83 501 l 43 271 l 629 271 z "},"!":{"ha":443,"x_min":0,"x_max":0,"o":"m 313 0 l 358 263 l 54 263 l 8 0 z "},"?":{"ha":443,"x_min":0,"x_max":0,"o":"m 313 0 l 358 263 l 54 263 l 8 0 z "},"–":{"ha":699,"x_min":0,"x_max":0,"o":"m 669 501 l 83 501 l 43 271 l 629 271 z "},"—":{"ha":699,"x_min":0,"x_max":0,"o":"m 669 501 l 83 501 l 43 271 l 629 271 z "},"_":{"ha":699,"x_min":0,"x_max":0,"o":"m 669 501 l 83 501 l 43 271 l 629 271 z "},"ﬁ":{"ha":1185,"x_min":0,"x_max":0,"o":"m 713 506 l 746 694 l 535 694 l 539 724 b 651 808 549 781 576 808 b 763 793 690 808 721 806 l 799 990 b 597 1018 728 1010 675 1018 b 235 729 389 1018 267 914 l 228 694 l 81 694 l 47 506 l 194 506 l 104 0 l 411 0 l 501 506 z m 911 1017 l 868 781 l 1182 781 l 1225 1017 z m 857 694 l 731 0 l 1035 0 l 1163 694 z "},"Ǻ":{"ha":1206,"x_min":0,"x_max":0,"o":"m 788 196 l 821 0 l 1133 0 l 913 986 l 519 986 l -50 0 l 293 0 l 394 196 z m 751 399 l 501 399 l 603 594 b 692 786 638 657 665 717 l 694 786 b 718 594 700 715 707 650 z "},"Ţ":{"ha":972,"x_min":0,"x_max":0,"o":"m 1032 740 l 1075 986 l 122 986 l 79 740 l 397 740 l 267 0 l 583 0 l 714 740 z "},"Ț":{"ha":972,"x_min":0,"x_max":0,"o":"m 1032 740 l 1075 986 l 122 986 l 79 740 l 397 740 l 267 0 l 583 0 l 714 740 z "},"ǻ":{"ha":972,"x_min":0,"x_max":0,"o":"m 285 -21 b 561 108 413 -21 519 26 b 551 0 554 71 551 29 l 850 0 b 868 182 849 38 857 115 l 903 381 b 510 715 943 607 799 715 b 78 457 224 715 104 603 l 389 457 b 508 540 399 519 444 540 b 608 457 579 540 617 513 l 604 431 l 375 419 b 92 346 247 413 151 389 b 8 181 33 304 8 243 b 285 -21 8 39 131 -21 z m 426 150 b 326 215 368 150 326 168 b 461 300 326 258 360 294 l 589 306 l 582 264 b 426 150 569 188 506 150 z "},"ﬀ":{"ha":1414,"x_min":0,"x_max":0,"o":"m 713 506 l 746 694 l 535 694 l 539 724 b 651 808 549 781 576 808 b 763 793 690 808 721 806 l 799 990 b 597 1018 728 1010 675 1018 b 235 729 389 1018 267 914 l 228 694 l 81 694 l 47 506 l 194 506 l 104 0 l 411 0 l 501 506 z m 1419 506 l 1453 694 l 1242 694 l 1246 724 b 1358 808 1256 781 1283 808 b 1469 793 1397 808 1428 806 l 1506 990 b 1304 1018 1435 1010 1382 1018 b 942 729 1096 1018 974 914 l 935 694 l 788 694 l 754 506 l 901 506 l 811 0 l 1118 0 l 1208 506 z "},"ţ":{"ha":707,"x_min":0,"x_max":0,"o":"m 60 694 l 26 506 l 175 506 l 144 324 b 428 -15 94 38 249 -15 b 610 4 508 -15 554 -10 l 647 224 b 568 218 622 219 596 218 b 453 338 482 218 438 249 l 482 506 l 699 506 l 732 694 l 515 694 l 561 961 l 236 850 l 210 694 z "},"ț":{"ha":707,"x_min":0,"x_max":0,"o":"m 60 694 l 26 506 l 175 506 l 144 324 b 428 -15 94 38 249 -15 b 610 4 508 -15 554 -10 l 647 224 b 568 218 622 219 596 218 b 453 338 482 218 438 249 l 482 506 l 699 506 l 732 694 l 515 694 l 561 961 l 236 850 l 210 694 z "},"Ё":{"ha":0,"x_min":0,"x_max":0,"o":""},"Ѓ":{"ha":0,"x_min":0,"x_max":0,"o":""},"Ї":{"ha":0,"x_min":0,"x_max":0,"o":""},"Љ":{"ha":0,"x_min":0,"x_max":0,"o":""},"Њ":{"ha":0,"x_min":0,"x_max":0,"o":""},"Ќ":{"ha":0,"x_min":0,"x_max":0,"o":""},"Ў":{"ha":0,"x_min":0,"x_max":0,"o":""},"Й":{"ha":0,"x_min":0,"x_max":0,"o":""},"й":{"ha":0,"x_min":0,"x_max":0,"o":""},"ё":{"ha":0,"x_min":0,"x_max":0,"o":""},"ѓ":{"ha":0,"x_min":0,"x_max":0,"o":""},"ї":{"ha":0,"x_min":0,"x_max":0,"o":""},"љ":{"ha":0,"x_min":0,"x_max":0,"o":""},"њ":{"ha":0,"x_min":0,"x_max":0,"o":""},"ќ":{"ha":0,"x_min":0,"x_max":0,"o":""},"ў":{"ha":0,"x_min":0,"x_max":0,"o":""},"Ґ":{"ha":0,"x_min":0,"x_max":0,"o":""},"ґ":{"ha":0,"x_min":0,"x_max":0,"o":""}}}
